<svg width="48" height="48" viewBox="0 0 48 48" fill="none" xmlns="http://www.w3.org/2000/svg">
<rect width="48" height="48" rx="24" fill="white"/>
<path d="M29.8537 23.4764H33.697C33.8773 23.4765 34.0546 23.5227 34.212 23.6105C34.3695 23.6984 34.5019 23.825 34.5966 23.9784C34.6914 24.1318 34.7454 24.3069 34.7535 24.487C34.7616 24.6671 34.7236 24.8463 34.643 25.0076L32.4907 29.3133C32.4091 29.4765 32.2866 29.6158 32.1353 29.7177C31.984 29.8196 31.8089 29.8806 31.627 29.8949C31.4452 29.9091 31.2627 29.8761 31.0973 29.7991C30.932 29.722 30.7894 29.6035 30.6833 29.4551L28.4357 26.3123M14.2456 30.8836H18.2243C18.6188 30.8864 19.0061 30.7789 19.3426 30.5732C19.6792 30.3675 19.9516 30.0719 20.1291 29.7197L21.6528 26.6509M14.2456 33V28.7673M19.5365 20.3019H19.5471M30.2304 20.358C30.4812 20.4835 30.6719 20.7035 30.7606 20.9696C30.8493 21.2357 30.8287 21.5261 30.7034 21.777L27.4167 28.3493C27.3545 28.4736 27.2685 28.5845 27.1635 28.6756C27.0585 28.7666 26.9365 28.8361 26.8047 28.88C26.6728 28.9239 26.5336 28.9414 26.3949 28.9315C26.2563 28.9217 26.1209 28.8845 25.9966 28.8223L15.9493 23.7939C15.2195 23.4263 14.665 22.7846 14.4072 22.0092C14.1494 21.2338 14.2092 20.3878 14.5736 19.6564L16.0339 16.7041C16.2159 16.3414 16.4676 16.0181 16.7746 15.7526C17.0816 15.4872 17.4378 15.2848 17.823 15.1571C18.2082 15.0293 18.6148 14.9787 19.0195 15.0081C19.4243 15.0375 19.8193 15.1464 20.182 15.3285L30.2304 20.358Z" stroke="#056399" stroke-width="1.5" stroke-linecap="round" stroke-linejoin="round"/>
</svg>
