<svg width="49" height="48" viewBox="0 0 49 48" fill="none" xmlns="http://www.w3.org/2000/svg">
<rect x="0.666748" width="48" height="48" rx="24" fill="white"/>
<path d="M24.6667 12C18.0492 12 12.6667 17.3825 12.6667 24C12.6667 30.6175 18.0492 36 24.6667 36C31.2843 36 36.6667 30.6175 36.6667 24C36.6667 17.3825 31.2843 12 24.6667 12ZM25.2682 13.6987C28.3445 13.8746 31.0534 15.3914 32.8248 17.675C32.3573 17.6629 31.8919 17.6602 31.4285 17.6671C30.624 17.6804 29.8203 17.723 29.0189 17.7948C28.8715 17.4906 28.6415 17.2341 28.3551 17.0545C28.0688 16.875 27.7376 16.7797 27.3996 16.7796C27.3159 16.7796 27.2322 16.7855 27.1493 16.7971C26.5858 15.7271 25.9576 14.6923 25.2682 13.6987ZM23.8095 13.7179C24.6823 14.9105 25.4391 16.121 26.0866 17.3484C25.8457 17.6053 25.6855 17.9272 25.6258 18.2743C24.5062 18.4926 23.3984 18.7674 22.3066 19.0975C22.1707 18.9138 22.0012 18.7577 21.8069 18.6374C22.2598 17.021 22.8934 15.3833 23.7034 13.7258C23.7387 13.7227 23.7742 13.721 23.8095 13.7179ZM22.2639 13.9632C21.5871 15.4428 21.0471 16.9169 20.6453 18.3816C20.4023 18.4108 20.1677 18.4892 19.956 18.6121C19.7444 18.735 19.5599 18.8997 19.4141 19.0963C18.3312 18.7511 17.2344 18.451 16.1266 18.1968C17.5724 16.0693 19.7615 14.5592 22.2639 13.9632ZM32.1334 18.8635C32.6355 18.8666 33.1399 18.8827 33.6471 18.9091C34.2533 19.9767 34.6628 21.1445 34.8559 22.357C33.4039 22.5931 31.9903 22.9202 30.6142 23.3326C30.4656 23.1486 30.2823 22.9957 30.0746 22.8826C29.8669 22.7695 29.639 22.6985 29.4039 22.6735C29.1725 21.7526 28.8907 20.8451 28.5598 19.955C28.8574 19.7039 29.0656 19.363 29.1531 18.9835C30.1368 18.8981 31.1297 18.857 32.1334 18.8635ZM15.4824 19.2864C16.7069 19.5559 17.9016 19.871 19.0615 20.2414L19.0618 20.2486C17.4999 20.8901 15.9641 21.6466 14.454 22.5134C14.6155 21.3882 14.963 20.2976 15.4824 19.2864ZM25.825 19.4506C25.9806 19.7319 26.2086 19.9664 26.4855 20.1297C26.7624 20.293 27.0779 20.3792 27.3994 20.3794L27.4479 20.3782C27.7616 21.2184 28.0288 22.0752 28.2485 22.9447C28.1584 23.0019 28.0735 23.0669 27.9948 23.1391C26.3024 22.0361 24.5157 21.0849 22.6555 20.2968C22.657 20.2763 22.6581 20.2559 22.6589 20.2354C23.7005 19.9208 24.757 19.6588 25.825 19.4506ZM19.5084 21.3564C19.6408 21.5069 19.7973 21.6343 19.9716 21.7332C19.6759 24.047 19.7415 26.3285 20.1927 28.5602C19.1292 29.3377 18.1048 30.1671 17.1231 31.0454C15.4008 29.2025 14.3467 26.7278 14.3467 24C14.3467 23.9887 14.3477 23.9779 14.3477 23.9666C16.039 22.9505 17.7581 22.0778 19.5082 21.3566M22.1772 21.3948C24.0107 22.1695 25.7701 23.1091 27.4337 24.2021C27.4208 24.2887 27.4142 24.3761 27.414 24.4637V24.475C25.2636 25.369 23.2107 26.4862 21.2527 27.8143C20.9143 25.8948 20.8783 23.9383 21.1311 21.9478C21.5321 21.8866 21.9008 21.6918 22.1772 21.3948ZM34.9755 23.5534C34.9817 23.7014 34.9867 23.8502 34.9867 24C34.9885 25.4617 34.679 26.907 34.0788 28.2398C33.0687 27.1642 31.9889 26.1562 30.8463 25.2226C30.9564 24.986 31.0137 24.7282 31.0143 24.4673C32.3142 24.08 33.6372 23.7748 34.9755 23.5534ZM27.8191 25.6003C28.0782 25.9183 28.438 26.1383 28.8391 26.2238C29.1017 28.602 29.0215 31.0397 28.6155 33.539C27.3632 34.056 26.0215 34.3214 24.6667 34.32C24.312 34.32 23.962 34.3025 23.6167 34.2674C22.6539 32.5721 21.9586 30.8426 21.5218 29.0818C23.5205 27.6842 25.6169 26.5198 27.8191 25.6003ZM30.0226 26.0947C31.2558 27.0998 32.414 28.1936 33.4877 29.3676C32.6058 30.8141 31.3821 32.0219 29.9242 32.8848C30.2326 30.5803 30.2698 28.3142 30.0226 26.0947ZM20.4922 29.8282C20.8738 31.2425 21.4123 32.6354 22.1129 34.0025C20.5959 33.6169 19.1871 32.8898 17.994 31.8766C18.8093 31.1518 19.6419 30.4678 20.4922 29.8282Z" fill="#056399"/>
<path d="M24.6667 36C21.4842 36 18.4319 34.7357 16.1815 32.4853C13.931 30.2348 12.6667 27.1826 12.6667 24C12.6667 20.8174 13.931 17.7652 16.1815 15.5147C18.4319 13.2643 21.4842 12 24.6667 12C27.8493 12 30.9016 13.2643 33.152 15.5147C35.4025 17.7652 36.6667 20.8174 36.6667 24C36.6667 27.1826 35.4025 30.2348 33.152 32.4853C30.9016 34.7357 27.8493 36 24.6667 36ZM33.9667 26.4C34.3732 24.8258 34.3732 23.1742 33.9667 21.6H29.3827C29.4932 23.1981 29.4932 24.8019 29.3827 26.4H33.9667ZM32.9827 28.8H29.1187C28.9183 30.2465 28.5352 31.6618 27.9787 33.012C30.0868 32.2344 31.8568 30.7445 32.9827 28.8ZM22.3627 26.4H26.9707C27.101 24.8027 27.101 23.1973 26.9707 21.6H22.3627C22.2325 23.1973 22.2325 24.8027 22.3627 26.4ZM22.6627 28.8C23.1547 31.68 24.0187 33.6 24.6667 33.6C25.3147 33.6 26.1787 31.68 26.6707 28.8H22.6627ZM15.3667 26.4H19.9507C19.8403 24.8019 19.8403 23.1981 19.9507 21.6H15.3667C14.9603 23.1742 14.9603 24.8258 15.3667 26.4ZM16.3507 28.8C17.4767 30.7445 19.2467 32.2344 21.3547 33.012C20.8507 31.86 20.4667 30.42 20.2147 28.8H16.3507ZM32.9827 19.2C31.8568 17.2555 30.0868 15.7656 27.9787 14.988C28.4827 16.14 28.8667 17.58 29.1187 19.2H32.9827ZM22.6627 19.2H26.6707C26.1787 16.32 25.3147 14.4 24.6667 14.4C24.0187 14.4 23.1547 16.32 22.6627 19.2ZM16.3507 19.2H20.2147C20.4547 17.58 20.8507 16.14 21.3547 14.988C19.2467 15.7656 17.4767 17.2555 16.3507 19.2Z" fill="#056399"/>
<path fill-rule="evenodd" clip-rule="evenodd" d="M24.6666 33.4739C27.1793 33.4739 29.589 32.4757 31.3658 30.699C33.1425 28.9223 34.1406 26.5125 34.1406 23.9999C34.1406 21.4872 33.1425 19.0775 31.3658 17.3007C29.589 15.524 27.1793 14.5259 24.6666 14.5259C22.154 14.5259 19.7442 15.524 17.9675 17.3007C16.1908 19.0775 15.1926 21.4872 15.1926 23.9999C15.1926 26.5125 16.1908 28.9223 17.9675 30.699C19.7442 32.4757 22.154 33.4739 24.6666 33.4739ZM28.4626 16.8959C28.5933 17.0845 28.7166 17.2799 28.8326 17.4819C29.3466 18.3749 29.7526 19.4319 30.0216 20.5979C30.391 20.6945 30.7393 20.8005 31.0666 20.9159C31.5166 21.0759 31.9366 21.2559 32.3096 21.4579C31.6564 19.502 30.2801 17.87 28.4626 16.8959ZM32.4756 25.9759C32.0616 26.2159 31.5856 26.4269 31.0656 26.6099C30.7703 26.7145 30.4576 26.8112 30.1276 26.8999C29.8646 28.2649 29.4196 29.4989 28.8326 30.5179C28.7178 30.7185 28.5944 30.914 28.4626 31.1039C29.4511 30.5747 30.3185 29.8452 31.0095 28.9622C31.7004 28.0791 32.1997 27.0627 32.4756 25.9759ZM20.8706 31.1029C20.7389 30.913 20.6154 30.7175 20.5006 30.5169C19.9136 29.4969 19.4686 28.2639 19.2056 26.8989C18.8756 26.8102 18.5626 26.7135 18.2666 26.6089C17.7788 26.4409 17.3075 26.2283 16.8586 25.9739C17.1344 27.0606 17.6336 28.0779 18.3243 28.961C19.0151 29.8441 19.8823 30.5735 20.8706 31.1029ZM17.0236 21.4579C17.4237 21.2462 17.8393 21.065 18.2666 20.9159C18.5946 20.8005 18.9433 20.6945 19.3126 20.5979C19.5816 19.4319 19.9866 18.3749 20.5006 17.4819C20.6173 17.2799 20.7406 17.0845 20.8706 16.8959C19.0532 17.87 17.6769 19.502 17.0236 21.4579ZM27.6016 18.1919C27.9466 18.7909 28.2416 19.4919 28.4686 20.2719C27.5106 20.1129 26.4686 20.0139 25.3776 19.9829V16.1099C26.1696 16.3689 26.9496 17.0599 27.6016 18.1919ZM28.8036 21.7759C27.6737 21.5589 26.5278 21.4351 25.3776 21.4059V26.1209C26.5513 26.0905 27.7204 25.9617 28.8726 25.7359C28.942 25.1772 28.977 24.5985 28.9776 23.9999C28.9776 23.2259 28.9166 22.4799 28.8036 21.7759ZM23.9566 16.1099V19.9829C22.8656 20.0129 21.8236 20.1129 20.8656 20.2709C21.0926 19.4919 21.3866 18.7909 21.7316 18.1909C22.3836 17.0599 23.1646 16.3679 23.9566 16.1099ZM23.9566 21.4059C22.8061 21.4354 21.6599 21.5595 20.5296 21.7769C20.3231 23.0873 20.2998 24.4201 20.4606 25.7369C21.4946 25.9469 22.6806 26.0849 23.9566 26.1219V21.4059ZM18.7406 22.2569C18.8386 22.2215 18.9393 22.1875 19.0426 22.1549C18.9169 23.2177 18.9001 24.2906 18.9926 25.3569C18.9066 25.3289 18.8226 25.3002 18.7406 25.2709C17.9956 25.0079 17.4436 24.7109 17.0906 24.4169C16.7346 24.1199 16.6606 23.8959 16.6606 23.7639C16.6606 23.6329 16.7346 23.4089 17.0906 23.1109C17.4436 22.8169 17.9956 22.5199 18.7406 22.2569ZM21.7316 29.8089C21.3146 29.0859 20.9716 28.2129 20.7326 27.2339C21.7266 27.4039 22.8146 27.5119 23.9556 27.5439V31.8909C23.1646 31.6319 22.3836 30.9409 21.7316 29.8089ZM25.3776 31.8909V27.5439C26.4579 27.5164 27.5349 27.4128 28.6006 27.2339C28.3606 28.2129 28.0186 29.0859 27.6006 29.8089C26.9496 30.9409 26.1696 31.6319 25.3776 31.8909ZM30.3966 23.9999C30.3966 24.4599 30.3776 24.9119 30.3396 25.3559C30.4256 25.3279 30.5096 25.2992 30.5916 25.2699C31.3366 25.0069 31.8886 24.7099 32.2416 24.4159C32.5976 24.1189 32.6716 23.8949 32.6716 23.7629C32.6716 23.6319 32.5976 23.4079 32.2416 23.1099C31.8886 22.8159 31.3366 22.5189 30.5916 22.2559C30.4915 22.2203 30.3908 22.1863 30.2896 22.1539C30.361 22.7539 30.397 23.3692 30.3976 23.9999" fill="#056399"/>
<path d="M20 29.5H23.5C24.0304 29.5 24.5391 29.2893 24.9142 28.9142C25.2893 28.5391 25.5 28.0304 25.5 27.5V20.5C25.5 19.9696 25.2893 19.4609 24.9142 19.0858C24.5391 18.7107 24.0304 18.5 23.5 18.5H20M25.5 24H30M15 32.4V26.6C15 26.2686 15.2686 26 15.6 26H19.4C19.7314 26 20 26.2686 20 26.6V32.4C20 32.7314 19.7314 33 19.4 33H15.6C15.2686 33 15 32.7314 15 32.4ZM30 26.9V21.1C30 20.7686 30.2686 20.5 30.6 20.5H34.4C34.7314 20.5 35 20.7686 35 21.1V26.9C35 27.2314 34.7314 27.5 34.4 27.5H30.6C30.2686 27.5 30 27.2314 30 26.9ZM15 21.4V15.6C15 15.2686 15.2686 15 15.6 15H19.4C19.7314 15 20 15.2686 20 15.6V21.4C20 21.7314 19.7314 22 19.4 22H15.6C15.2686 22 15 21.7314 15 21.4Z" stroke="#056399" stroke-width="1.5"/>
<path d="M25.4168 24.75H29.2733C29.4558 25.457 29.8899 26.0732 30.4943 26.483C31.0986 26.8928 31.8316 27.0681 32.556 26.9761C33.2804 26.8841 33.9463 26.5311 34.429 25.9832C34.9117 25.4353 35.178 24.7302 35.178 24C35.178 23.2698 34.9117 22.5647 34.429 22.0168C33.9463 21.469 33.2804 21.1159 32.556 21.0239C31.8316 20.9319 31.0986 21.1072 30.4943 21.5171C29.8899 21.9269 29.4558 22.543 29.2733 23.25H25.4168V17.25H29.2733C29.4558 17.957 29.8899 18.5732 30.4943 18.983C31.0986 19.3928 31.8316 19.5681 32.556 19.4761C33.2804 19.3841 33.9463 19.0311 34.429 18.4832C34.9117 17.9353 35.178 17.2302 35.178 16.5C35.178 15.7698 34.9117 15.0647 34.429 14.5168C33.9463 13.969 33.2804 13.6159 32.556 13.5239C31.8316 13.4319 31.0986 13.6072 30.4943 14.0171C29.8899 14.4269 29.4558 15.043 29.2733 15.75H25.4168C25.0189 15.75 24.6374 15.908 24.3561 16.1893C24.0748 16.4707 23.9168 16.8522 23.9168 17.25V23.25H20.0603C19.8777 22.543 19.4436 21.9269 18.8392 21.5171C18.2349 21.1072 17.5019 20.9319 16.7775 21.0239C16.0531 21.1159 15.3872 21.469 14.9045 22.0168C14.4218 22.5647 14.1555 23.2698 14.1555 24C14.1555 24.7302 14.4218 25.4353 14.9045 25.9832C15.3872 26.5311 16.0531 26.8841 16.7775 26.9761C17.5019 27.0681 18.2349 26.8928 18.8392 26.483C19.4436 26.0732 19.8777 25.457 20.0603 24.75H23.9168V30.75C23.9168 31.1478 24.0748 31.5294 24.3561 31.8107C24.6374 32.092 25.0189 32.25 25.4168 32.25H29.2733C29.4558 32.957 29.8899 33.5732 30.4943 33.983C31.0986 34.3928 31.8316 34.5681 32.556 34.4761C33.2804 34.3841 33.9463 34.0311 34.429 33.4832C34.9117 32.9353 35.178 32.2302 35.178 31.5C35.178 30.7698 34.9117 30.0647 34.429 29.5168C33.9463 28.969 33.2804 28.6159 32.556 28.5239C31.8316 28.4319 31.0986 28.6072 30.4943 29.0171C29.8899 29.4269 29.4558 30.043 29.2733 30.75H25.4168V24.75ZM32.1668 22.5C32.4634 22.5 32.7534 22.588 33.0001 22.7528C33.2468 22.9176 33.439 23.1519 33.5526 23.426C33.6661 23.7001 33.6958 24.0017 33.6379 24.2926C33.5801 24.5836 33.4372 24.8509 33.2274 25.0607C33.0176 25.2704 32.7504 25.4133 32.4594 25.4712C32.1684 25.5291 31.8668 25.4994 31.5927 25.3858C31.3186 25.2723 31.0844 25.08 30.9196 24.8334C30.7547 24.5867 30.6668 24.2967 30.6668 24C30.6668 23.6022 30.8248 23.2207 31.1061 22.9393C31.3874 22.658 31.7689 22.5 32.1668 22.5ZM32.1668 15C32.4634 15 32.7534 15.088 33.0001 15.2528C33.2468 15.4176 33.439 15.6519 33.5526 15.926C33.6661 16.2001 33.6958 16.5017 33.6379 16.7926C33.5801 17.0836 33.4372 17.3509 33.2274 17.5607C33.0176 17.7704 32.7504 17.9133 32.4594 17.9712C32.1684 18.0291 31.8668 17.9994 31.5927 17.8858C31.3186 17.7723 31.0844 17.58 30.9196 17.3334C30.7547 17.0867 30.6668 16.7967 30.6668 16.5C30.6668 16.1022 30.8248 15.7207 31.1061 15.4393C31.3874 15.158 31.7689 15 32.1668 15ZM17.1668 25.5C16.8701 25.5 16.5801 25.412 16.3334 25.2472C16.0867 25.0824 15.8945 24.8481 15.7809 24.574C15.6674 24.2999 15.6377 23.9983 15.6956 23.7074C15.7535 23.4164 15.8963 23.1491 16.1061 22.9393C16.3159 22.7296 16.5831 22.5867 16.8741 22.5288C17.1651 22.471 17.4667 22.5007 17.7408 22.6142C18.0149 22.7277 18.2491 22.92 18.414 23.1667C18.5788 23.4133 18.6668 23.7033 18.6668 24C18.6668 24.3978 18.5087 24.7794 18.2274 25.0607C17.9461 25.342 17.5646 25.5 17.1668 25.5ZM32.1668 30C32.4634 30 32.7534 30.088 33.0001 30.2528C33.2468 30.4176 33.439 30.6519 33.5526 30.926C33.6661 31.2001 33.6958 31.5017 33.6379 31.7926C33.5801 32.0836 33.4372 32.3509 33.2274 32.5607C33.0176 32.7704 32.7504 32.9133 32.4594 32.9712C32.1684 33.0291 31.8668 32.9994 31.5927 32.8858C31.3186 32.7723 31.0844 32.58 30.9196 32.3334C30.7547 32.0867 30.6668 31.7967 30.6668 31.5C30.6668 31.1022 30.8248 30.7207 31.1061 30.4393C31.3874 30.158 31.7689 30 32.1668 30Z" fill="#056399"/>
</svg>
