<svg width="135" height="66" viewBox="0 0 135 66" fill="none" xmlns="http://www.w3.org/2000/svg">
<g id="SDS Logo FNL-02 1" clip-path="url(#clip0_155_721)">
<g id="Group">
<path id="Vector" d="M19.5531 29.0829C19.4566 29.1022 19.4207 29.232 19.4952 29.3038L20.3313 29.7898C20.4692 29.8395 20.5686 29.6738 20.4527 29.5744C20.1961 29.4419 19.945 29.2513 19.6884 29.1243C19.6415 29.1022 19.6083 29.0719 19.5504 29.0829H19.5531Z" fill="#056399"/>
<path id="Vector_2" d="M16.3662 6.59297H17.3982V4.26807L19.716 0.755859H18.5405L16.8905 3.33479L15.2652 0.755859H14.0483L16.3662 4.29292V6.59297Z" fill="#056399"/>
<path id="Vector_3" d="M19.3433 4.41769C19.3433 5.6685 20.3339 6.69566 21.675 6.69566C23.016 6.69566 24.0342 5.64365 24.0342 4.40389V4.38732C24.0342 3.12823 23.0519 2.10107 21.6915 2.10107C20.3312 2.10107 19.3406 3.1448 19.3406 4.40389V4.42046L19.3433 4.41769ZM20.3505 4.38456C20.3505 3.61695 20.8665 2.98464 21.675 2.98464C22.4834 2.98464 23.0243 3.62524 23.0243 4.40113V4.41769C23.0243 5.17701 22.5166 5.80932 21.6915 5.80932C20.9161 5.80932 20.3505 5.16597 20.3505 4.40113V4.38456Z" fill="#056399"/>
<path id="Vector_4" d="M26.5755 6.6861C27.2516 6.6861 27.66 6.33543 27.9497 5.91021V6.59499H28.9651V2.19092H27.9497V4.67597C27.9497 5.36902 27.5496 5.76112 26.9591 5.76112C26.3686 5.76112 26.0181 5.38559 26.0181 4.69254V2.19092H25.011V4.99351C25.011 6.02619 25.5766 6.6861 26.5783 6.6861H26.5755Z" fill="#056399"/>
<path id="Vector_5" d="M31.2361 4.91711C31.2361 3.74913 31.8432 3.17481 32.7372 3.17481H32.7952V2.10624C32.0198 2.0731 31.5121 2.51489 31.2361 3.18309V2.19183H30.2207V6.5959H31.2361V4.91987V4.91711Z" fill="#056399"/>
<path id="Vector_6" d="M37.7123 6.59297H38.736V1.70846H40.5958V0.755859H35.8552V1.70846H37.7123V6.59297Z" fill="#056399"/>
<path id="Vector_7" d="M43.5288 3.17481V2.10624C42.7534 2.0731 42.2457 2.51489 41.9698 3.18309V2.19183H40.9543V6.5959H41.9698V4.91987C41.9698 3.75189 42.5768 3.17757 43.4709 3.17757H43.5288V3.17481Z" fill="#056399"/>
<path id="Vector_8" d="M45.9212 6.6861C46.5973 6.6861 47.0057 6.33543 47.2954 5.91021V6.59499H48.3108V2.19092H47.2954V4.67597C47.2954 5.36902 46.8953 5.76112 46.3048 5.76112C45.7143 5.76112 45.3639 5.38559 45.3639 4.69254V2.19092H44.3567V4.99351C44.3567 6.02619 44.9224 6.6861 45.924 6.6861H45.9212Z" fill="#056399"/>
<path id="Vector_9" d="M51.106 5.87775C50.6479 5.87775 50.1568 5.69276 49.6656 5.33656L49.2158 6.02133C49.7732 6.46312 50.4492 6.68125 51.0839 6.68125C52 6.68125 52.7174 6.2229 52.7174 5.2979V5.28134C52.7174 4.48888 51.9834 4.1962 51.3516 3.9974C50.8356 3.84001 50.361 3.68814 50.361 3.37337V3.3568C50.361 3.11382 50.5872 2.9233 50.9763 2.9233C51.3433 2.9233 51.793 3.08069 52.218 3.34024L52.6181 2.62233C52.1518 2.31308 51.5613 2.12256 51.0011 2.12256C50.1264 2.12256 49.4338 2.63062 49.4338 3.47277V3.48934C49.4338 4.32321 50.1678 4.59933 50.808 4.77328C51.324 4.93067 51.7903 5.05768 51.7903 5.39178V5.40836C51.7903 5.70104 51.5392 5.88327 51.106 5.88327V5.87775Z" fill="#056399"/>
<path id="Vector_10" d="M53.8737 5.37789C53.8737 6.3443 54.398 6.67011 55.1403 6.67011C55.5321 6.67011 55.7915 6.58728 56.0481 6.44646V5.62087C55.8466 5.72027 55.6397 5.76998 55.4245 5.76998C55.0823 5.76998 54.8836 5.61258 54.8836 5.2205V3.06127H56.0674V2.19426H54.8836V0.984863H53.8765V2.19426H53.3191V3.06127H53.8765V5.38065L53.8737 5.37789Z" fill="#056399"/>
<path id="Vector_11" d="M62.491 6.6946C64.2818 6.6946 65.5483 5.31126 65.5483 3.67665V3.66008C65.5483 2.01719 64.2984 0.658691 62.5075 0.658691C60.7167 0.658691 59.4502 2.04204 59.4502 3.67665V3.69321C59.4502 5.33611 60.7002 6.6946 62.491 6.6946ZM60.5236 3.65732C60.5236 2.52248 61.3321 1.60577 62.491 1.60577C63.6499 1.60577 64.4749 2.53904 64.4749 3.67388V3.69046C64.4749 4.8253 63.6665 5.74201 62.5075 5.74201C61.3486 5.74201 60.5236 4.80873 60.5236 3.67388V3.65732Z" fill="#056399"/>
<path id="Vector_12" d="M68.1917 6.6861C68.8678 6.6861 69.2761 6.33543 69.5659 5.91021V6.59499H70.5813V2.19092H69.5659V4.67597C69.5659 5.36902 69.1658 5.76112 68.5753 5.76112C67.9848 5.76112 67.6343 5.38559 67.6343 4.69254V2.19092H66.6272V4.99351C66.6272 6.02619 67.1929 6.6861 68.1945 6.6861H68.1917Z" fill="#056399"/>
<path id="Vector_13" d="M72.8523 4.91711C72.8523 3.74913 73.4594 3.17481 74.3534 3.17481H74.4114V2.10624C73.636 2.0731 73.1283 2.51489 72.8523 3.18309V2.19183H71.8369V6.5959H72.8523V4.91987V4.91711Z" fill="#056399"/>
<path id="Vector_14" d="M78.9285 4.71814H80.0874C81.3788 4.71814 82.4218 4.02509 82.4218 2.72458V2.708C82.4218 1.53174 81.5719 0.755859 80.2061 0.755859H77.9048V6.59297H78.9285V4.71814ZM78.9285 1.69189H80.1205C80.8876 1.69189 81.3788 2.04256 81.3788 2.73561V2.75218C81.3788 3.35964 80.8959 3.7959 80.1205 3.7959H78.9285V1.69466V1.69189Z" fill="#056399"/>
<path id="Vector_15" d="M84.3643 4.91711C84.3643 3.74913 84.9714 3.17481 85.8654 3.17481H85.9233V2.10624C85.148 2.0731 84.6402 2.51489 84.3643 3.18309V2.19183H83.3489V6.5959H84.3643V4.91987V4.91711Z" fill="#056399"/>
<path id="Vector_16" d="M88.7545 2.10107C87.4052 2.10107 86.4036 3.1448 86.4036 4.40389V4.42046C86.4036 5.67127 87.3942 6.69842 88.7352 6.69842C90.0762 6.69842 91.0944 5.64642 91.0944 4.40665V4.39009C91.0944 3.13099 90.1121 2.10384 88.7518 2.10384L88.7545 2.10107ZM90.09 4.41769C90.09 5.17701 89.5823 5.80932 88.7573 5.80932C87.9819 5.80932 87.4162 5.16597 87.4162 4.40113V4.38456C87.4162 3.61695 87.9322 2.98464 88.7407 2.98464C89.5492 2.98464 90.09 3.62524 90.09 4.40113V4.41769Z" fill="#056399"/>
<path id="Vector_17" d="M92.3305 5.37789C92.3305 6.3443 92.8548 6.67011 93.597 6.67011C93.9889 6.67011 94.2482 6.58728 94.5048 6.44646V5.62087C94.3034 5.72027 94.0965 5.76998 93.8812 5.76998C93.5391 5.76998 93.3404 5.61258 93.3404 5.2205V3.06127H94.5242V2.19426H93.3404V0.984863H92.3333V2.19426H91.7759V3.06127H92.3333V5.38065L92.3305 5.37789Z" fill="#056399"/>
<path id="Vector_18" d="M97.4407 6.69451C98.2492 6.69451 98.8149 6.3687 99.2398 5.86893L98.6493 5.34431C98.2906 5.68669 97.9567 5.86893 97.4573 5.86893C96.7978 5.86893 96.2984 5.47684 96.1908 4.75066H99.4247C99.433 4.65125 99.4412 4.56014 99.4412 4.46626C99.4412 3.19888 98.7321 2.09717 97.3331 2.09717C96.0749 2.09717 95.1836 3.12157 95.1836 4.38894V4.40551C95.1836 5.76401 96.1742 6.689 97.4407 6.689V6.69451ZM97.3248 2.92552C97.9926 2.92552 98.3761 3.44186 98.4424 4.08521H96.1852C96.2763 3.39216 96.7012 2.92552 97.3276 2.92552H97.3248Z" fill="#056399"/>
<path id="Vector_19" d="M102.49 6.69566C103.348 6.69566 103.856 6.36156 104.289 5.87007L103.68 5.2709C103.354 5.59672 103.012 5.81209 102.537 5.81209C101.762 5.81209 101.221 5.18806 101.221 4.40389V4.38732C101.221 3.61972 101.762 2.98741 102.496 2.98741C102.995 2.98741 103.321 3.21382 103.63 3.53688L104.262 2.8604C103.837 2.41033 103.329 2.10107 102.504 2.10107C101.18 2.10107 100.214 3.15032 100.214 4.40389V4.42046C100.214 5.67127 101.18 6.69842 102.488 6.69842L102.49 6.69566Z" fill="#056399"/>
<path id="Vector_20" d="M105.426 5.37789C105.426 6.3443 105.95 6.67011 106.693 6.67011C107.085 6.67011 107.344 6.58728 107.601 6.44646V5.62087C107.399 5.72027 107.192 5.76998 106.977 5.76998C106.635 5.76998 106.436 5.61258 106.436 5.2205V3.06127H107.62V2.19426H106.436V0.984863H105.429V2.19426H104.872V3.06127H105.429V5.38065L105.426 5.37789Z" fill="#056399"/>
<path id="Vector_21" d="M109.709 2.19092H108.693V6.59499H109.709V2.19092Z" fill="#056399"/>
<path id="Vector_22" d="M109.745 0.557129H108.66V1.51526H109.745V0.557129Z" fill="#056399"/>
<path id="Vector_23" d="M113.119 6.69566C114.477 6.69566 115.479 5.64365 115.479 4.40389V4.38732C115.479 3.12823 114.496 2.10107 113.136 2.10107C111.776 2.10107 110.785 3.1448 110.785 4.40389V4.42046C110.785 5.67127 111.776 6.69842 113.117 6.69842L113.119 6.69566ZM111.795 4.38456C111.795 3.61695 112.311 2.98464 113.119 2.98464C113.928 2.98464 114.469 3.62524 114.469 4.40113V4.41769C114.469 5.17701 113.961 5.80932 113.136 5.80932C112.36 5.80932 111.795 5.16597 111.795 4.40113V4.38456Z" fill="#056399"/>
<path id="Vector_24" d="M117.512 4.1073C117.512 3.41425 117.912 3.01388 118.503 3.01388C119.093 3.01388 119.444 3.39768 119.444 4.09073V6.59235H120.451V3.78148C120.451 2.75709 119.885 2.09717 118.883 2.09717C118.191 2.09717 117.799 2.45612 117.509 2.86477V2.18829H116.494V6.59235H117.509V4.1073H117.512Z" fill="#056399"/>
<path id="Vector_25" d="M14.9808 60.4528C13.935 60.2043 13.6866 60.0193 13.6866 59.5996V59.583C13.6866 59.2185 14.0122 58.9396 14.5696 58.9396C15.0663 58.9396 15.5464 59.1329 16.0403 59.4974L16.5508 58.7767C15.9934 58.3349 15.3809 58.0947 14.5834 58.0947C13.5073 58.0947 12.7319 58.7381 12.7319 59.6686V59.6852C12.7319 60.6764 13.3831 61.0326 14.5365 61.3032C15.5437 61.5269 15.7589 61.7533 15.7589 62.1316V62.1481C15.7589 62.5513 15.3864 62.8301 14.7986 62.8301C14.1254 62.8301 13.6149 62.5816 13.0879 62.126L12.5139 62.808C13.1651 63.3962 13.9377 63.675 14.7738 63.675C15.9134 63.675 16.7081 63.0786 16.7081 62.057V62.0432C16.7081 61.1375 16.1121 60.7482 14.9725 60.4555L14.9808 60.4528Z" fill="#056399"/>
<path id="Vector_26" d="M18.6673 60.4303V59.5081H17.7236V63.5974H18.6673V62.0401C18.6673 60.9549 19.233 60.422 20.0608 60.422H20.116V59.4308C19.3958 59.4004 18.924 59.8118 18.6673 60.4303Z" fill="#056399"/>
<path id="Vector_27" d="M22.5634 59.4219C21.3935 59.4219 20.5657 60.3745 20.5657 61.5535V61.5701C20.5657 62.8319 21.4873 63.6934 22.6628 63.6934C23.4133 63.6934 23.9403 63.3924 24.3349 62.9258L23.7858 62.4371C23.4519 62.7546 23.1429 62.9258 22.6793 62.9258C22.0667 62.9258 21.6032 62.5613 21.5011 61.8876H24.506C24.5143 61.7937 24.5225 61.7109 24.5225 61.6253C24.5225 60.4463 23.8658 59.4246 22.5634 59.4246V59.4219ZM21.4928 61.2663C21.5783 60.623 21.9729 60.1895 22.5524 60.1895C23.1705 60.1895 23.5292 60.6699 23.5899 61.2663H21.4928Z" fill="#056399"/>
<path id="Vector_28" d="M27.2407 59.4219C26.0707 59.4219 25.2429 60.3745 25.2429 61.5535V61.5701C25.2429 62.8319 26.1645 63.6934 27.34 63.6934C28.0906 63.6934 28.6176 63.3924 29.0122 62.9258L28.4631 62.4371C28.1292 62.7546 27.8201 62.9258 27.3566 62.9258C26.744 62.9258 26.2804 62.5613 26.1811 61.8876H29.186C29.1943 61.7937 29.2026 61.7109 29.2026 61.6253C29.2026 60.4463 28.5458 59.4246 27.2434 59.4246L27.2407 59.4219ZM26.1701 61.2663C26.2556 60.623 26.6502 60.1895 27.2296 60.1895C27.8477 60.1895 28.2065 60.6699 28.2672 61.2663H26.1701Z" fill="#056399"/>
<path id="Vector_29" d="M31.7935 61.1808C31.3133 61.0344 30.8718 60.8936 30.8718 60.6009V60.5844C30.8718 60.3607 31.0815 60.1812 31.4458 60.1812C31.7852 60.1812 32.2046 60.3276 32.5992 60.5678L32.9717 59.9024C32.5385 59.6152 31.9894 59.4385 31.4706 59.4385C30.6566 59.4385 30.0137 59.9106 30.0137 60.6948V60.7114C30.0137 61.4845 30.6952 61.7413 31.2913 61.9042C31.7714 62.0505 32.2046 62.1665 32.2046 62.4785V62.4951C32.2046 62.7657 31.9728 62.9369 31.57 62.9369C31.145 62.9369 30.687 62.7657 30.2317 62.4343L29.8123 63.0694C30.331 63.4808 30.9574 63.6824 31.5479 63.6824C32.4005 63.6824 33.0655 63.2572 33.0655 62.3957V62.3791C33.0655 61.6419 32.3839 61.3713 31.7962 61.1863L31.7935 61.1808Z" fill="#056399"/>
<path id="Vector_30" d="M35.7944 59.4219C34.6244 59.4219 33.7966 60.3745 33.7966 61.5535V61.5701C33.7966 62.8319 34.7183 63.6934 35.8937 63.6934C36.6443 63.6934 37.1713 63.3924 37.5659 62.9258L37.0168 62.4371C36.6829 62.7546 36.3739 62.9258 35.9103 62.9258C35.2977 62.9258 34.8341 62.5613 34.7348 61.8876H37.7397C37.748 61.7937 37.7563 61.7109 37.7563 61.6253C37.7563 60.4463 37.0996 59.4246 35.7971 59.4246L35.7944 59.4219ZM34.7265 61.2663C34.8121 60.623 35.2067 60.1895 35.7861 60.1895C36.4042 60.1895 36.7602 60.6699 36.8236 61.2663H34.7265Z" fill="#056399"/>
<path id="Vector_31" d="M40.6344 62.8712C39.9143 62.8712 39.4121 62.2914 39.4121 61.5624V61.5486C39.4121 60.8363 39.9143 60.2454 40.5958 60.2454C41.0594 60.2454 41.3629 60.4552 41.6499 60.7562L42.2376 60.1294C41.843 59.7097 41.3712 59.4253 40.6041 59.4253C39.3734 59.4253 38.4739 60.4 38.4739 61.5624V61.579C38.4739 62.7415 39.3707 63.6941 40.5875 63.6941C41.385 63.6941 41.8568 63.3848 42.2597 62.9265L41.694 62.3687C41.3933 62.6697 41.0759 62.8712 40.6344 62.8712Z" fill="#056399"/>
<path id="Vector_32" d="M45.7998 61.8161C45.7998 62.4595 45.4273 62.824 44.8782 62.824C44.3291 62.824 44.0035 62.4761 44.0035 61.8327V59.5078H43.0681V62.1116C43.0681 63.0725 43.5951 63.6855 44.525 63.6855C45.1514 63.6855 45.5322 63.3597 45.8026 62.9648V63.5999H46.7463V59.5106H45.8026V61.8189L45.7998 61.8161Z" fill="#056399"/>
<path id="Vector_33" d="M48.8517 60.4303V59.5081H47.908V63.5974H48.8517V62.0401C48.8517 60.9549 49.4173 60.422 50.2451 60.422H50.3003V59.4308C49.5801 59.4004 49.1083 59.8118 48.8517 60.4303Z" fill="#056399"/>
<path id="Vector_34" d="M52.7451 59.4219C51.5751 59.4219 50.7473 60.3745 50.7473 61.5535V61.5701C50.7473 62.8319 51.6689 63.6934 52.8444 63.6934C53.5949 63.6934 54.122 63.3924 54.5166 62.9258L53.9675 62.4371C53.6336 62.7546 53.3245 62.9258 52.861 62.9258C52.2484 62.9258 51.7848 62.5613 51.6855 61.8876H54.6904C54.6987 61.7937 54.707 61.7109 54.707 61.6253C54.707 60.4463 54.0502 59.4246 52.7478 59.4246L52.7451 59.4219ZM51.6772 61.2663C51.7627 60.623 52.1573 60.1895 52.7368 60.1895C53.3549 60.1895 53.7136 60.6699 53.7743 61.2663H51.6772Z" fill="#056399"/>
<path id="Vector_35" d="M60.1014 58.1733H58.0815V63.5963H60.1014C61.8039 63.5963 62.9821 62.4117 62.9821 60.8848V60.8682C62.9821 59.3413 61.8039 58.1733 60.1014 58.1733ZM61.9832 60.9014C61.9832 61.9617 61.241 62.7293 60.1014 62.7293H59.0335V59.0404H60.1014C61.241 59.0404 61.9832 59.8218 61.9832 60.8848V60.9014Z" fill="#93C940"/>
<path id="Vector_36" d="M65.7995 59.4219C64.6296 59.4219 63.8018 60.3745 63.8018 61.5535V61.5701C63.8018 62.8319 64.7234 63.6934 65.8988 63.6934C66.6494 63.6934 67.1764 63.3924 67.571 62.9258L67.0219 62.4371C66.688 62.7546 66.379 62.9258 65.9154 62.9258C65.3028 62.9258 64.8393 62.5613 64.7372 61.8876H67.7421C67.7504 61.7937 67.7559 61.7109 67.7559 61.6253C67.7559 60.4463 67.0992 59.4246 65.7968 59.4246L65.7995 59.4219ZM64.7317 61.2663C64.8172 60.623 65.2118 60.1895 65.7912 60.1895C66.4121 60.1895 66.7653 60.6699 66.8287 61.2663H64.7317Z" fill="#93C940"/>
<path id="Vector_37" d="M70.3523 61.1808C69.8722 61.0344 69.4307 60.8936 69.4307 60.6009V60.5844C69.4307 60.3607 69.6404 60.1812 70.0046 60.1812C70.344 60.1812 70.7634 60.3276 71.158 60.5678L71.5305 59.9024C71.0973 59.6152 70.5482 59.4385 70.0295 59.4385C69.2155 59.4385 68.5725 59.9106 68.5725 60.6948V60.7114C68.5725 61.4845 69.2541 61.7413 69.8501 61.9042C70.3302 62.0505 70.7634 62.1665 70.7634 62.4785V62.4951C70.7634 62.7657 70.5317 62.9369 70.1288 62.9369C69.7039 62.9369 69.2458 62.7657 68.7905 62.4343L68.3711 63.0694C68.8898 63.4808 69.5162 63.6824 70.1067 63.6824C70.9593 63.6824 71.6243 63.2572 71.6243 62.3957V62.3791C71.6243 61.6419 70.9428 61.3713 70.3551 61.1863L70.3523 61.1808Z" fill="#93C940"/>
<path id="Vector_38" d="M73.6058 57.9897H72.5986V58.8816H73.6058V57.9897Z" fill="#93C940"/>
<path id="Vector_39" d="M73.5726 59.5078H72.6289V63.5971H73.5726V59.5078Z" fill="#93C940"/>
<path id="Vector_40" d="M77.8799 60.1204C77.5626 59.7422 77.1377 59.4219 76.4478 59.4219C75.4876 59.4219 74.5908 60.1342 74.5908 61.3436V61.3602C74.5908 62.5613 75.4821 63.2737 76.4478 63.2737C77.1211 63.2737 77.5461 62.9645 77.8882 62.531V62.8402C77.8882 63.6686 77.4302 64.0882 76.5941 64.0882C76.0367 64.0882 75.5787 63.9336 75.1399 63.663L74.7922 64.3671C75.3276 64.6929 75.9374 64.8559 76.6189 64.8559C77.3612 64.8559 77.9269 64.6791 78.2994 64.3064C78.647 63.9585 78.8181 63.4477 78.8181 62.7656V59.513H77.8827V60.126L77.8799 60.1204ZM77.8938 61.3519C77.8938 62.0174 77.3446 62.4757 76.6934 62.4757C76.0422 62.4757 75.5317 62.0174 75.5317 61.3519V61.3381C75.5317 60.6644 76.0422 60.2226 76.6934 60.2226C77.3446 60.2226 77.8938 60.681 77.8938 61.3381V61.3519Z" fill="#93C940"/>
<path id="Vector_41" d="M82.2066 59.4222C81.5637 59.4222 81.1995 59.7563 80.9291 60.1346V59.5078H79.9854V63.5971H80.9291V61.2888C80.9291 60.6454 81.3016 60.2726 81.8507 60.2726C82.3998 60.2726 82.7254 60.6288 82.7254 61.2722V63.5971H83.6608V60.985C83.6608 60.0324 83.1338 59.4194 82.2039 59.4194L82.2066 59.4222Z" fill="#93C940"/>
<path id="Vector_42" d="M89.323 60.4528C88.2772 60.2043 88.0316 60.0193 88.0316 59.5996V59.583C88.0316 59.2185 88.3572 58.9396 88.9146 58.9396C89.4113 58.9396 89.8886 59.1329 90.3853 59.4974L90.8958 58.7767C90.3384 58.3349 89.7258 58.0947 88.9284 58.0947C87.8522 58.0947 87.0769 58.7381 87.0769 59.6686V59.6852C87.0769 60.6764 87.7281 61.0326 88.8815 61.3032C89.8886 61.5269 90.1039 61.7533 90.1039 62.1316V62.1481C90.1039 62.5513 89.7313 62.8301 89.1436 62.8301C88.4703 62.8301 87.9598 62.5816 87.4328 62.126L86.8589 62.808C87.5101 63.3962 88.2827 63.675 89.1188 63.675C90.2584 63.675 91.0531 63.0786 91.0531 62.057V62.0432C91.0531 61.1375 90.4571 60.7482 89.3174 60.4555L89.323 60.4528Z" fill="#056399"/>
<path id="Vector_43" d="M94.0303 59.4219C92.7776 59.4219 91.8477 60.391 91.8477 61.559V61.5756C91.8477 62.738 92.7693 63.6906 94.0165 63.6906C95.2637 63.6906 96.2074 62.7159 96.2074 61.559V61.5452C96.2074 60.3745 95.2941 59.4219 94.0303 59.4219ZM95.2692 61.5756C95.2692 62.2797 94.7974 62.8706 94.0303 62.8706C93.3101 62.8706 92.7831 62.2742 92.7831 61.5618V61.548C92.7831 60.8356 93.2632 60.2447 94.0137 60.2447C94.7643 60.2447 95.2665 60.8411 95.2665 61.5618V61.5783L95.2692 61.5756Z" fill="#056399"/>
<path id="Vector_44" d="M98.15 57.9424H97.2063V63.5973H98.15V57.9424Z" fill="#056399"/>
<path id="Vector_45" d="M102.06 61.8161C102.06 62.4595 101.687 62.824 101.138 62.824C100.589 62.824 100.264 62.4761 100.264 61.8327V59.5078H99.3281V62.1116C99.3281 63.0725 99.8551 63.6855 100.785 63.6855C101.411 63.6855 101.792 63.3597 102.063 62.9648V63.5999H103.006V59.5106H102.063V61.8189L102.06 61.8161Z" fill="#056399"/>
<path id="Vector_46" d="M105.305 58.3846H104.369V59.5084H103.851V60.3147H104.369V62.4684C104.369 63.3657 104.858 63.6695 105.548 63.6695C105.912 63.6695 106.152 63.5922 106.392 63.4596V62.692C106.207 62.7859 106.011 62.8301 105.81 62.8301C105.492 62.8301 105.308 62.6837 105.308 62.3193V60.3119H106.406V59.5056H105.308V58.3818L105.305 58.3846Z" fill="#056399"/>
<path id="Vector_47" d="M108.379 57.9897H107.372V58.8816H108.379V57.9897Z" fill="#056399"/>
<path id="Vector_48" d="M108.348 59.5078H107.405V63.5971H108.348V59.5078Z" fill="#056399"/>
<path id="Vector_49" d="M111.53 59.4219C110.275 59.4219 109.347 60.391 109.347 61.559V61.5756C109.347 62.738 110.269 63.6906 111.516 63.6906C112.763 63.6906 113.707 62.7159 113.707 61.559V61.5452C113.707 60.3745 112.794 59.4219 111.533 59.4219H111.53ZM112.769 61.5756C112.769 62.2797 112.297 62.8706 111.53 62.8706C110.81 62.8706 110.283 62.2742 110.283 61.5618V61.548C110.283 60.8356 110.763 60.2447 111.513 60.2447C112.264 60.2447 112.769 60.8411 112.769 61.5618V61.5783V61.5756Z" fill="#056399"/>
<path id="Vector_50" d="M116.872 59.4222C116.229 59.4222 115.865 59.7563 115.595 60.1346V59.5078H114.651V63.5971H115.595V61.2888C115.595 60.6454 115.967 60.2726 116.516 60.2726C117.065 60.2726 117.391 60.6288 117.391 61.2722V63.5971H118.326V60.985C118.326 60.0324 117.799 59.4194 116.872 59.4194V59.4222Z" fill="#056399"/>
<path id="Vector_51" d="M121.108 61.1808C120.627 61.0344 120.186 60.8936 120.186 60.6009V60.5844C120.186 60.3607 120.396 60.1812 120.76 60.1812C121.099 60.1812 121.519 60.3276 121.913 60.5678L122.286 59.9024C121.853 59.6152 121.304 59.4385 120.785 59.4385C119.971 59.4385 119.331 59.9106 119.331 60.6948V60.7114C119.331 61.4845 120.012 61.7413 120.608 61.9042C121.088 62.0505 121.522 62.1665 121.522 62.4785V62.4951C121.522 62.7657 121.29 62.9369 120.887 62.9369C120.462 62.9369 120.004 62.7657 119.549 62.4343L119.129 63.0694C119.648 63.4808 120.274 63.6824 120.865 63.6824C121.717 63.6824 122.382 63.2572 122.382 62.3957V62.3791C122.382 61.6419 121.701 61.3713 121.113 61.1863L121.108 61.1808Z" fill="#056399"/>
<path id="Vector_52" d="M10.7425 30.2668C10.7425 25.2663 14.7932 21.2102 19.7931 21.2102H29.437L39.939 10.7012H18.1872C8.27567 10.7012 0.240479 18.7417 0.240479 28.6598V33.4422H10.7425V30.2668Z" fill="#056399"/>
<path id="Vector_53" d="M39.939 35.7316V30.9492H29.437V34.1246C29.437 39.125 25.3863 43.1812 20.3864 43.1812H10.7425L0.240479 53.6902H21.9923C31.9038 53.6902 39.939 45.6497 39.939 35.7316Z" fill="#056399"/>
<path id="Vector_54" d="M105.501 30.2668C105.501 25.2663 109.552 21.2102 114.551 21.2102H124.195L134.697 10.7012H112.945C103.034 10.7012 94.9988 18.7417 94.9988 28.6598V33.4422H105.501V30.2668Z" fill="#056399"/>
<path id="Vector_55" d="M124.195 34.127C124.195 39.1275 120.145 43.1836 115.145 43.1836H105.501L94.9988 53.6927H116.751C126.662 53.6927 134.697 45.6521 134.697 35.734V30.9517H124.195V34.127Z" fill="#056399"/>
<path id="Vector_56" d="M67.1018 21.2105C73.1641 21.2105 78.0812 26.1282 78.0812 32.1972C78.0812 38.2635 73.1668 43.1839 67.1018 43.1839H45.9874V53.6929H67.466C79.3284 53.6929 88.9447 44.0703 88.9447 32.2C88.9447 20.3297 79.3284 10.707 67.466 10.707H56.4922L45.9846 21.2161H67.099L67.1018 21.2105Z" fill="#93C940"/>
<path id="Vector_57" d="M18.9599 28.6403C18.7778 28.8723 18.477 29.419 18.3363 29.6923C18.1183 30.1176 18.2038 30.4627 18.6012 30.7195C18.8054 30.852 19.0289 30.957 19.2358 31.084L20.77 30.6808C20.8638 30.6725 20.9576 30.6698 21.0459 30.7057L23.1016 31.904L24.4979 31.2634C24.531 31.2358 24.531 31.1751 24.5034 31.1447L19.8925 28.447C19.5725 28.2759 19.1861 28.3587 18.9599 28.6431V28.6403ZM20.334 29.7862L19.498 29.3002C19.4207 29.2312 19.4593 29.1014 19.5559 29.0794C19.6111 29.0683 19.647 29.0959 19.6939 29.1208C19.9505 29.2478 20.2016 29.4383 20.4582 29.5709C20.5741 29.6675 20.4748 29.8332 20.3368 29.7862H20.334Z" fill="#056399"/>
<path id="Vector_58" d="M22.7124 31.9268C22.1881 31.612 21.5976 31.2227 21.0568 30.9521C20.9492 30.8969 20.9105 30.8831 20.7836 30.8996C20.3945 30.9549 19.953 31.1619 19.5585 31.2255L19.5088 31.2531L22.2543 32.8573C22.3068 32.8683 22.3592 32.8435 22.3951 32.8048C22.5496 32.537 22.7179 32.2719 22.8586 31.9986C22.8062 31.982 22.7565 31.9516 22.7096 31.924L22.7124 31.9268Z" fill="#056399"/>
<path id="Vector_59" d="M23.0161 32.1802L22.7705 32.6165C22.8312 32.6248 22.8754 32.6745 22.9278 32.6966C23.5735 32.9727 24.1805 32.4039 23.9846 31.7412L23.0161 32.1802Z" fill="#056399"/>
<path id="Vector_60" d="M17.7732 32.5487C17.7428 32.3747 17.5911 32.3968 17.4531 32.4023V31.6099C17.4531 31.6099 17.3924 31.5243 17.3758 31.5188C17.2875 31.4801 17.1772 31.5215 17.1523 31.6182L17.144 35.4092C17.1634 35.5307 17.2958 35.6025 17.3952 35.5225C17.4089 35.5114 17.4503 35.4507 17.4503 35.4396V34.6637C17.6407 34.6693 17.7566 34.6748 17.7732 34.4567C17.8201 33.8409 17.7401 33.1699 17.7732 32.5514V32.5487Z" fill="#056399"/>
<path id="Vector_61" d="M19.1502 33.2464H17.9885V33.8152H19.3627C19.4096 33.8152 19.5144 33.7462 19.5476 33.7075L20.185 32.5948L19.6966 32.3076C19.5255 32.6252 19.3461 32.9427 19.1502 33.2464Z" fill="#056399"/>
<path id="Vector_62" d="M19.7599 32.0842C19.8482 32.145 20.3725 32.4598 20.447 32.4736C20.5988 32.5012 20.7974 32.4349 20.8499 32.2858L19.644 31.5845C19.5364 31.7722 19.5861 31.96 19.7599 32.0815V32.0842Z" fill="#056399"/>
<path id="Vector_63" d="M14.1667 31.9568C14.1667 35.4083 16.973 38.2164 20.4222 38.2164C23.8713 38.2164 26.6776 35.4083 26.6776 31.9568C26.6776 28.5054 23.8713 25.6973 20.4222 25.6973C16.973 25.6973 14.1667 28.5054 14.1667 31.9568ZM26.4486 31.9568C26.4486 35.2813 23.7444 37.9872 20.4222 37.9872C17.0999 37.9872 14.3958 35.2813 14.3958 31.9568C14.3958 28.6324 17.0999 25.9264 20.4222 25.9264C23.7444 25.9264 26.4486 28.6324 26.4486 31.9568Z" fill="#056399"/>
<path id="Vector_64" d="M108.594 31.9568C108.594 35.4083 111.4 38.2164 114.849 38.2164C118.299 38.2164 121.105 35.4083 121.105 31.9568C121.105 28.5054 118.299 25.6973 114.849 25.6973C111.4 25.6973 108.594 28.5054 108.594 31.9568ZM120.876 31.9568C120.876 35.2813 118.172 37.9872 114.849 37.9872C111.527 37.9872 108.823 35.2813 108.823 31.9568C108.823 28.6324 111.527 25.9264 114.849 25.9264C118.172 25.9264 120.876 28.6324 120.876 31.9568Z" fill="#056399"/>
<path id="Vector_65" d="M69.4058 31.9568C69.4058 28.5054 66.5996 25.6973 63.1504 25.6973C59.7013 25.6973 56.895 28.5054 56.895 31.9568C56.895 35.4083 59.7013 38.2164 63.1504 38.2164C66.5996 38.2164 69.4058 35.4083 69.4058 31.9568ZM57.124 31.9568C57.124 28.6324 59.8282 25.9264 63.1504 25.9264C66.4727 25.9264 69.1768 28.6324 69.1768 31.9568C69.1768 35.2813 66.4727 37.9872 63.1504 37.9872C59.8282 37.9872 57.124 35.2813 57.124 31.9568Z" fill="#93C940"/>
<path id="Vector_66" d="M63.0319 35.4331C62.9987 35.4137 62.9298 35.4441 62.8801 35.4413C62.0661 35.3944 61.5501 34.1657 61.3873 33.4864H63.0484C63.0815 33.3401 63.1836 33.2214 63.2664 33.1026H61.2935C61.1252 32.1997 61.1224 31.2637 61.2935 30.3608H64.5329C64.566 30.3635 64.624 30.9738 64.635 31.0455C64.6378 31.0704 64.624 31.0787 64.6626 31.0732C64.762 31.0594 64.8999 30.9655 65.0186 30.982L64.9468 30.3608H66.3431C66.4948 30.6783 66.5666 31.0456 66.608 31.3935C66.6218 31.5094 66.608 31.6585 66.6273 31.7773C66.6521 31.9429 66.7901 32.1279 66.8094 32.3626C66.8177 32.462 66.7873 32.6443 66.8094 32.7243C66.8121 32.7354 66.848 32.752 66.8563 32.7547C66.8977 32.763 66.8784 32.7382 66.8867 32.7133C67.491 30.4795 65.965 28.1546 63.7272 27.7156C60.7802 27.1385 58.2527 29.7809 58.9425 32.705C59.3951 34.624 61.2769 35.9991 63.2471 35.8086C63.1947 35.7589 63.0567 35.4524 63.0291 35.4331H63.0319ZM64.0445 28.2043C64.8917 28.4721 65.6312 29.0548 66.0892 29.8141C66.1196 29.8638 66.1527 29.9245 66.172 29.977H64.8558C64.7454 29.4938 64.5633 28.9912 64.2984 28.5715C64.2267 28.4583 64.1439 28.3645 64.0638 28.2568C64.0583 28.2485 64.0252 28.2071 64.0445 28.2043ZM62.9132 28.0193C63.7493 28.0083 64.2929 29.3033 64.4557 29.977H61.3873C61.5446 29.3005 62.0882 28.0304 62.9132 28.0193ZM59.7538 29.8141C60.2118 29.0548 60.9513 28.4721 61.7984 28.2043C61.826 28.2181 61.7984 28.2374 61.7902 28.2512C61.7212 28.3396 61.6439 28.4224 61.5804 28.5163C61.2962 28.9471 61.1003 29.4744 60.9844 29.977H59.6682C59.6682 29.977 59.74 29.8334 59.751 29.8141H59.7538ZM59.4972 30.3608H60.8934L60.783 31.283C60.7692 31.8932 60.7885 32.5007 60.8934 33.1026H59.4972C59.1274 32.2494 59.1274 31.214 59.4972 30.3608ZM61.7984 35.2591C60.9541 34.9913 60.2118 34.4087 59.7538 33.6493C59.7234 33.5996 59.6903 33.5389 59.671 33.4864H60.9872C61.1031 33.989 61.299 34.5163 61.5832 34.9471C61.6467 35.041 61.7239 35.1238 61.7929 35.2122C61.804 35.226 61.8288 35.2425 61.8012 35.2591H61.7984Z" fill="#93C940"/>
<path id="Vector_67" d="M66.23 33.1203C66.2079 32.7227 66.3045 32.3389 66.0782 31.9827C65.7057 31.3918 64.8145 31.3918 64.442 31.9827C64.2185 32.3389 64.3123 32.7227 64.2902 33.1203C63.8625 33.1976 63.5397 33.5759 63.5065 34.0067C63.4458 34.7825 63.4431 35.7048 64.4116 35.8263C65.2228 35.7269 66.7377 36.1963 66.9888 35.0752C67.0495 34.8046 67.044 33.9652 66.9474 33.7112C66.8343 33.413 66.5501 33.1728 66.2328 33.1176L66.23 33.1203ZM64.6737 32.419C64.6737 32.1788 64.9855 31.9468 65.2118 31.933C65.4739 31.9192 65.8437 32.1291 65.8437 32.419V33.1038H64.6737V32.419ZM66.5887 35.0476C66.5032 35.2878 66.2852 35.4259 66.0368 35.4452C65.6257 35.4784 64.8724 35.4811 64.4668 35.4452C64.2157 35.4231 63.9977 35.2658 63.9232 35.0228C63.8708 34.8461 63.8735 34.2496 63.8956 34.0508C63.9232 33.7747 64.1164 33.5345 64.4006 33.4958C64.9166 33.4268 65.565 33.5373 66.0948 33.4903C66.4038 33.529 66.6053 33.7581 66.6329 34.0674C66.6522 34.2745 66.6549 34.8709 66.5915 35.0504L66.5887 35.0476Z" fill="#93C940"/>
</g>
<g id="Group_2">
<g id="Group_3">
<path id="Vector_68" d="M116.527 29.988C116.676 30.9213 116.033 31.8104 115.097 31.9484C114.029 32.1058 113.066 31.2195 113.147 30.1399C113.149 30.1012 113.171 29.9272 113.196 29.9272C114.076 30.5568 115.244 30.612 116.215 30.1537C116.32 30.104 116.416 30.0294 116.524 29.988H116.527Z" fill="#056399"/>
<path id="Vector_69" d="M117.208 28.2508C117.28 28.3198 117.297 28.4579 117.266 28.549C117.233 28.6567 116.877 28.919 116.8 29.035C116.83 29.4519 116.535 29.6148 116.215 29.786C115.313 30.2775 114.239 30.2526 113.378 29.6811C113.21 29.5706 113.05 29.4712 113.014 29.2559C113.003 29.1868 113.017 29.0847 112.995 29.0322C112.956 28.9494 112.658 28.723 112.581 28.6153C112.504 28.5076 112.487 28.3364 112.589 28.2398C112.669 28.1652 113.111 28.0934 113.251 28.052C113.417 28.0051 113.596 27.9526 113.759 27.8918C114.107 27.7593 114.455 27.5274 114.791 27.4059C114.824 27.3948 114.866 27.3783 114.899 27.3755C115.017 27.3728 115.409 27.6075 115.547 27.6682C115.917 27.8366 116.229 27.9581 116.623 28.0713C116.759 28.11 117.123 28.1652 117.208 28.2453V28.2508ZM114.634 28.1486C114.634 28.1486 114.51 28.2646 114.507 28.2784C114.501 28.3005 114.543 28.353 114.546 28.3971C114.551 28.4772 114.504 28.549 114.504 28.6208C114.499 28.8086 114.67 29.0212 114.849 29.0653C114.993 29.104 115.211 28.919 115.26 28.7865C115.327 28.6015 115.244 28.5352 115.255 28.3971C115.258 28.353 115.299 28.3005 115.293 28.2784C115.291 28.2646 115.175 28.1486 115.166 28.1486C115.158 28.1486 115.095 28.2011 115.042 28.2039C114.99 28.2066 114.948 28.168 114.902 28.168C114.86 28.168 114.822 28.2039 114.777 28.2039C114.711 28.2066 114.648 28.1486 114.637 28.1486H114.634Z" fill="#056399"/>
</g>
<path id="Vector_70" d="M118.249 35.698H115.274L115.153 33.9971H114.546L114.424 35.698H111.45V33.8867C111.45 33.3731 112.388 32.9147 112.791 32.738C113.072 32.6138 113.376 32.5061 113.682 32.4619C113.748 32.4785 113.933 33.3924 114.01 33.409C114.082 33.4256 114.728 32.7021 114.841 32.6221C114.893 32.6138 115.484 33.2737 115.597 33.3593C115.625 33.3786 115.66 33.42 115.699 33.4007C115.776 33.3593 115.983 32.4757 116.052 32.4647C116.16 32.4757 116.259 32.5033 116.361 32.5337C116.875 32.68 118.249 33.2461 118.249 33.8867V35.698ZM115.169 33.7707C115.169 33.6796 115.28 33.4256 115.269 33.3593C115.263 33.3289 114.871 32.9368 114.841 32.9424C114.788 33.0114 114.438 33.3096 114.427 33.3593C114.413 33.4256 114.529 33.6796 114.526 33.7707H115.169ZM116.419 33.5747C116.4 33.5774 116.284 33.6989 116.284 33.7238C116.284 33.7541 116.336 33.8094 116.339 33.8701C116.339 33.9391 116.29 34.0385 116.287 34.1131C116.281 34.3395 116.477 34.5604 116.69 34.6184C116.83 34.657 117.087 34.4334 117.139 34.2981C117.217 34.0938 117.115 34.0137 117.134 33.848C117.139 33.7983 117.181 33.7459 117.173 33.71C117.167 33.6934 117.054 33.5774 117.04 33.5774C117.021 33.5747 116.946 33.6354 116.88 33.6354C116.808 33.6354 116.767 33.5829 116.734 33.5774C116.709 33.5747 116.637 33.6409 116.557 33.6326C116.505 33.6299 116.436 33.5719 116.417 33.5747H116.419Z" fill="#056399"/>
</g>
</g>
<defs>
<clipPath id="clip0_155_721">
<rect width="134.938" height="64.77" fill="white" transform="translate(0 0.319824)"/>
</clipPath>
</defs>
</svg>
