<svg width="67" height="32" viewBox="0 0 67 32" fill="none" xmlns="http://www.w3.org/2000/svg">
<g id="SDS Logo FNL-02 2" clip-path="url(#clip0_286_187)">
<g id="Group">
<path id="Vector" d="M9.60445 14.2203C9.55701 14.2298 9.53939 14.2936 9.57599 14.3288L9.9867 14.5676C10.0545 14.592 10.1033 14.5106 10.0463 14.4618C9.92028 14.3967 9.79693 14.3031 9.67088 14.2407C9.64783 14.2298 9.63157 14.2149 9.6031 14.2203H9.60445Z" fill="#056399"/>
<path id="Vector_2" d="M8.03874 3.17267H8.54569V2.0306L9.68429 0.305286H9.10686L8.29629 1.57214L7.49791 0.305286H6.90015L8.03874 2.04281V3.17267Z" fill="#056399"/>
<path id="Vector_3" d="M9.50185 2.10383C9.50185 2.71827 9.98845 3.22284 10.6472 3.22284C11.306 3.22284 11.8062 2.70606 11.8062 2.09705V2.08891C11.8062 1.4704 11.3236 0.965832 10.6553 0.965832C9.9871 0.965832 9.50049 1.47854 9.50049 2.09705V2.10519L9.50185 2.10383ZM9.99659 2.08755C9.99659 1.71048 10.2501 1.39987 10.6472 1.39987C11.0444 1.39987 11.31 1.71455 11.31 2.09569V2.10383C11.31 2.47683 11.0606 2.78745 10.6553 2.78745C10.2745 2.78745 9.99659 2.47141 9.99659 2.09569V2.08755Z" fill="#056399"/>
<path id="Vector_4" d="M13.0549 3.21882C13.387 3.21882 13.5876 3.04656 13.73 2.83768V3.17406H14.2288V1.01064H13.73V2.23137C13.73 2.57183 13.5334 2.76443 13.2433 2.76443C12.9533 2.76443 12.7811 2.57996 12.7811 2.23951V1.01064H12.2864V2.38736C12.2864 2.89465 12.5642 3.21882 13.0563 3.21882H13.0549Z" fill="#056399"/>
<path id="Vector_5" d="M15.3443 2.34928C15.3443 1.77554 15.6425 1.49341 16.0817 1.49341H16.1101V0.968493C15.7292 0.952217 15.4798 1.16924 15.3443 1.49748V1.01054H14.8455V3.17396H15.3443V2.35064V2.34928Z" fill="#056399"/>
<path id="Vector_6" d="M18.5255 3.17267H19.0284V0.773234H19.942V0.305286H17.6133V0.773234H18.5255V3.17267Z" fill="#056399"/>
<path id="Vector_7" d="M21.3823 1.49341V0.968493C21.0014 0.952217 20.752 1.16924 20.6165 1.49748V1.01054H20.1177V3.17396H20.6165V2.35064C20.6165 1.77689 20.9147 1.49477 21.3539 1.49477H21.3823V1.49341Z" fill="#056399"/>
<path id="Vector_8" d="M22.5581 3.21882C22.8902 3.21882 23.0908 3.04656 23.2331 2.83768V3.17406H23.7319V1.01064H23.2331V2.23137C23.2331 2.57183 23.0366 2.76443 22.7465 2.76443C22.4564 2.76443 22.2843 2.57996 22.2843 2.23951V1.01064H21.7896V2.38736C21.7896 2.89465 22.0674 3.21882 22.5595 3.21882H22.5581Z" fill="#056399"/>
<path id="Vector_9" d="M25.1043 2.82132C24.8793 2.82132 24.638 2.73045 24.3967 2.55548L24.1758 2.89185C24.4496 3.10887 24.7817 3.21603 25.0934 3.21603C25.5435 3.21603 25.8959 2.99087 25.8959 2.53648V2.52835C25.8959 2.13907 25.5353 1.99529 25.2249 1.89763C24.9715 1.82032 24.7383 1.74572 24.7383 1.59109V1.58295C24.7383 1.46359 24.8495 1.37 25.0406 1.37C25.2209 1.37 25.4418 1.44731 25.6505 1.57481L25.8471 1.22215C25.618 1.07024 25.3279 0.97665 25.0528 0.97665C24.6231 0.97665 24.2829 1.22623 24.2829 1.63992V1.64806C24.2829 2.05768 24.6434 2.19332 24.9579 2.27877C25.2114 2.35609 25.4404 2.41848 25.4404 2.5826V2.59074C25.4404 2.73452 25.3171 2.82404 25.1043 2.82404V2.82132Z" fill="#056399"/>
<path id="Vector_10" d="M26.4639 2.57592C26.4639 3.05065 26.7214 3.2107 27.086 3.2107C27.2785 3.2107 27.4059 3.17001 27.532 3.10083V2.69528C27.433 2.74411 27.3314 2.76852 27.2256 2.76852C27.0576 2.76852 26.96 2.69121 26.96 2.4986V1.43792H27.5415V1.01201H26.96V0.417919H26.4652V1.01201H26.1914V1.43792H26.4652V2.57727L26.4639 2.57592Z" fill="#056399"/>
<path id="Vector_11" d="M30.6973 3.22289C31.5771 3.22289 32.1992 2.54334 32.1992 1.74037V1.73223C32.1992 0.925184 31.5852 0.257847 30.7055 0.257847C29.8258 0.257847 29.2036 0.937391 29.2036 1.74037V1.7485C29.2036 2.55555 29.8176 3.22289 30.6973 3.22289ZM29.7309 1.73087C29.7309 1.1734 30.1281 0.723083 30.6973 0.723083C31.2666 0.723083 31.6719 1.18154 31.6719 1.73901V1.74715C31.6719 2.30462 31.2748 2.75494 30.7055 2.75494C30.1362 2.75494 29.7309 2.29648 29.7309 1.73901V1.73087Z" fill="#056399"/>
<path id="Vector_12" d="M33.498 3.21882C33.8301 3.21882 34.0307 3.04656 34.1731 2.83768V3.17406H34.6719V1.01064H34.1731V2.23137C34.1731 2.57183 33.9765 2.76443 33.6865 2.76443C33.3964 2.76443 33.2242 2.57996 33.2242 2.23951V1.01064H32.7295V2.38736C32.7295 2.89465 33.0074 3.21882 33.4994 3.21882H33.498Z" fill="#056399"/>
<path id="Vector_13" d="M35.7874 2.34928C35.7874 1.77554 36.0856 1.49341 36.5248 1.49341H36.5532V0.968493C36.1723 0.952217 35.9229 1.16924 35.7874 1.49748V1.01054H35.2886V3.17396H35.7874V2.35064V2.34928Z" fill="#056399"/>
<path id="Vector_14" d="M38.7714 2.25169H39.3407C39.9751 2.25169 40.4875 1.91124 40.4875 1.27238V1.26424C40.4875 0.686425 40.07 0.305286 39.399 0.305286H38.2686V3.17267H38.7714V2.25169ZM38.7714 0.765096H39.357C39.7338 0.765096 39.9751 0.937356 39.9751 1.27781V1.28594C39.9751 1.58435 39.7379 1.79866 39.357 1.79866H38.7714V0.766454V0.765096Z" fill="#056399"/>
<path id="Vector_15" d="M41.4424 2.34928C41.4424 1.77554 41.7406 1.49341 42.1798 1.49341H42.2083V0.968493C41.8274 0.952217 41.578 1.16924 41.4424 1.49748V1.01054H40.9436V3.17396H41.4424V2.35064V2.34928Z" fill="#056399"/>
<path id="Vector_16" d="M43.5985 0.965832C42.9356 0.965832 42.4436 1.47854 42.4436 2.09705V2.10519C42.4436 2.71963 42.9302 3.2242 43.589 3.2242C44.2477 3.2242 44.7479 2.70742 44.7479 2.09841V2.09027C44.7479 1.47176 44.2654 0.967189 43.5971 0.967189L43.5985 0.965832ZM44.2545 2.10383C44.2545 2.47683 44.0051 2.78745 43.5998 2.78745C43.2189 2.78745 42.9411 2.47141 42.9411 2.09569V2.08755C42.9411 1.71048 43.1945 1.39987 43.5917 1.39987C43.9888 1.39987 44.2545 1.71455 44.2545 2.09569V2.10383Z" fill="#056399"/>
<path id="Vector_17" d="M45.3557 2.57592C45.3557 3.05065 45.6132 3.2107 45.9779 3.2107C46.1703 3.2107 46.2978 3.17001 46.4238 3.10083V2.69528C46.3249 2.74411 46.2232 2.76852 46.1175 2.76852C45.9494 2.76852 45.8518 2.69121 45.8518 2.4986V1.43792H46.4333V1.01201H45.8518V0.417919H45.3571V1.01201H45.0833V1.43792H45.3571V2.57727L45.3557 2.57592Z" fill="#056399"/>
<path id="Vector_18" d="M47.8661 3.22281C48.2633 3.22281 48.5411 3.06276 48.7499 2.81726L48.4598 2.55954C48.2836 2.72774 48.1196 2.81726 47.8742 2.81726C47.5503 2.81726 47.3049 2.62465 47.2521 2.26792H48.8407C48.8448 2.21909 48.8488 2.17433 48.8488 2.12822C48.8488 1.50564 48.5005 0.964443 47.8132 0.964443C47.1951 0.964443 46.7573 1.46766 46.7573 2.09024V2.09838C46.7573 2.76571 47.2439 3.2201 47.8661 3.2201V3.22281ZM47.8092 1.37136C48.1372 1.37136 48.3256 1.625 48.3581 1.94104H47.2494C47.2941 1.60059 47.5028 1.37136 47.8105 1.37136H47.8092Z" fill="#056399"/>
<path id="Vector_19" d="M50.3465 3.22284C50.7681 3.22284 51.0175 3.05872 51.2303 2.81729L50.9307 2.52295C50.7708 2.68301 50.6027 2.7888 50.3696 2.7888C49.9887 2.7888 49.723 2.48226 49.723 2.09705V2.08891C49.723 1.71184 49.9887 1.40123 50.3493 1.40123C50.5946 1.40123 50.7545 1.51245 50.9064 1.67115L51.2168 1.33884C51.008 1.11775 50.7586 0.965832 50.3533 0.965832C49.7027 0.965832 49.2283 1.48125 49.2283 2.09705V2.10519C49.2283 2.71963 49.7027 3.2242 50.3452 3.2242L50.3465 3.22284Z" fill="#056399"/>
<path id="Vector_20" d="M51.7886 2.57592C51.7886 3.05065 52.0461 3.2107 52.4107 3.2107C52.6032 3.2107 52.7306 3.17001 52.8567 3.10083V2.69528C52.7577 2.74411 52.6561 2.76852 52.5503 2.76852C52.3823 2.76852 52.2847 2.69121 52.2847 2.4986V1.43792H52.8662V1.01201H52.2847V0.417919H51.7899V1.01201H51.5161V1.43792H51.7899V2.57727L51.7886 2.57592Z" fill="#056399"/>
<path id="Vector_21" d="M53.8924 1.01064H53.3936V3.17406H53.8924V1.01064Z" fill="#056399"/>
<path id="Vector_22" d="M53.9094 0.207634H53.3767V0.678297H53.9094V0.207634Z" fill="#056399"/>
<path id="Vector_23" d="M55.5681 3.22284C56.235 3.22284 56.7271 2.70606 56.7271 2.09705V2.08891C56.7271 1.4704 56.2445 0.965832 55.5763 0.965832C54.908 0.965832 54.4214 1.47854 54.4214 2.09705V2.10519C54.4214 2.71963 54.908 3.2242 55.5668 3.2242L55.5681 3.22284ZM54.9175 2.08755C54.9175 1.71048 55.171 1.39987 55.5681 1.39987C55.9653 1.39987 56.231 1.71455 56.231 2.09569V2.10383C56.231 2.47683 55.9815 2.78745 55.5763 2.78745C55.1954 2.78745 54.9175 2.47141 54.9175 2.09569V2.08755Z" fill="#056399"/>
<path id="Vector_24" d="M57.725 1.95189C57.725 1.61143 57.9216 1.41476 58.2116 1.41476C58.5017 1.41476 58.6739 1.6033 58.6739 1.94375V3.17263H59.1686V1.79183C59.1686 1.28862 58.8907 0.964443 58.3987 0.964443C58.0585 0.964443 57.866 1.14077 57.7237 1.34152V1.00921H57.2249V3.17263H57.7237V1.95189H57.725Z" fill="#056399"/>
<path id="Vector_25" d="M7.35852 29.6302C6.8448 29.5081 6.72281 29.4172 6.72281 29.211V29.2029C6.72281 29.0239 6.88275 28.8869 7.15656 28.8869C7.40054 28.8869 7.6364 28.9818 7.87903 29.1609L8.12979 28.8068C7.85598 28.5898 7.55507 28.4718 7.16333 28.4718C6.6347 28.4718 6.25381 28.7879 6.25381 29.245V29.2531C6.25381 29.74 6.57371 29.915 7.14029 30.0479C7.63504 30.1578 7.74076 30.269 7.74076 30.4548V30.463C7.74076 30.661 7.55778 30.798 7.26906 30.798C6.93833 30.798 6.68757 30.6759 6.42867 30.4521L6.14673 30.7872C6.46662 31.0761 6.84615 31.213 7.25686 31.213C7.81667 31.213 8.20705 30.9201 8.20705 30.4182V30.4114C8.20705 29.9665 7.91427 29.7753 7.35446 29.6315L7.35852 29.6302Z" fill="#056399"/>
<path id="Vector_26" d="M9.16963 29.6193V29.1663H8.70605V31.1751H9.16963V30.4101C9.16963 29.877 9.4475 29.6152 9.85415 29.6152H9.88126V29.1283C9.52748 29.1134 9.29569 29.3155 9.16963 29.6193Z" fill="#056399"/>
<path id="Vector_27" d="M11.0834 29.1242C10.5087 29.1242 10.1021 29.5921 10.1021 30.1713V30.1794C10.1021 30.7993 10.5548 31.2225 11.1322 31.2225C11.5009 31.2225 11.7598 31.0746 11.9536 30.8454L11.6839 30.6053C11.5199 30.7613 11.3681 30.8454 11.1403 30.8454C10.8394 30.8454 10.6117 30.6664 10.5616 30.3354H12.0377C12.0417 30.2893 12.0458 30.2486 12.0458 30.2066C12.0458 29.6274 11.7232 29.1255 11.0834 29.1255V29.1242ZM10.5575 30.0302C10.5995 29.7142 10.7933 29.5012 11.078 29.5012C11.3816 29.5012 11.5578 29.7373 11.5876 30.0302H10.5575Z" fill="#056399"/>
<path id="Vector_28" d="M13.3815 29.1242C12.8068 29.1242 12.4001 29.5921 12.4001 30.1713V30.1794C12.4001 30.7993 12.8529 31.2225 13.4303 31.2225C13.799 31.2225 14.0579 31.0746 14.2517 30.8454L13.982 30.6053C13.818 30.7613 13.6662 30.8454 13.4384 30.8454C13.1375 30.8454 12.9098 30.6664 12.861 30.3354H14.3371C14.3412 30.2893 14.3453 30.2486 14.3453 30.2066C14.3453 29.6274 14.0227 29.1255 13.3829 29.1255L13.3815 29.1242ZM12.8556 30.0302C12.8976 29.7142 13.0914 29.5012 13.3761 29.5012C13.6797 29.5012 13.8559 29.7373 13.8858 30.0302H12.8556Z" fill="#056399"/>
<path id="Vector_29" d="M15.6178 29.9882C15.3819 29.9163 15.165 29.8472 15.165 29.7034V29.6953C15.165 29.5854 15.268 29.4972 15.447 29.4972C15.6137 29.4972 15.8197 29.5691 16.0136 29.6871L16.1965 29.3602C15.9837 29.2192 15.714 29.1324 15.4592 29.1324C15.0593 29.1324 14.7435 29.3643 14.7435 29.7495V29.7577C14.7435 30.1374 15.0783 30.2636 15.3711 30.3436C15.6069 30.4155 15.8197 30.4725 15.8197 30.6257V30.6339C15.8197 30.7668 15.7059 30.8509 15.508 30.8509C15.2992 30.8509 15.0742 30.7668 14.8506 30.604L14.6445 30.916C14.8994 31.1181 15.2071 31.2171 15.4971 31.2171C15.916 31.2171 16.2426 31.0082 16.2426 30.585V30.5769C16.2426 30.2147 15.9078 30.0818 15.6191 29.991L15.6178 29.9882Z" fill="#056399"/>
<path id="Vector_30" d="M17.5834 29.1242C17.0087 29.1242 16.6021 29.5921 16.6021 30.1713V30.1794C16.6021 30.7993 17.0548 31.2225 17.6322 31.2225C18.0009 31.2225 18.2598 31.0746 18.4536 30.8454L18.1839 30.6053C18.0199 30.7613 17.8681 30.8454 17.6403 30.8454C17.3394 30.8454 17.1117 30.6664 17.0629 30.3354H18.539C18.5431 30.2893 18.5472 30.2486 18.5472 30.2066C18.5472 29.6274 18.2246 29.1255 17.5848 29.1255L17.5834 29.1242ZM17.0589 30.0302C17.1009 29.7142 17.2947 29.5012 17.5794 29.5012C17.883 29.5012 18.0578 29.7373 18.089 30.0302H17.0589Z" fill="#056399"/>
<path id="Vector_31" d="M19.9603 30.8183C19.6065 30.8183 19.3598 30.5335 19.3598 30.1754V30.1686C19.3598 29.8187 19.6065 29.5284 19.9413 29.5284C20.169 29.5284 20.3181 29.6315 20.4591 29.7793L20.7478 29.4714C20.554 29.2653 20.3222 29.1256 19.9454 29.1256C19.3408 29.1256 18.8989 29.6044 18.8989 30.1754V30.1835C18.8989 30.7546 19.3395 31.2225 19.9372 31.2225C20.329 31.2225 20.5607 31.0706 20.7586 30.8454L20.4808 30.5715C20.333 30.7193 20.1771 30.8183 19.9603 30.8183Z" fill="#056399"/>
<path id="Vector_32" d="M22.4977 30.3003C22.4977 30.6163 22.3147 30.7954 22.045 30.7954C21.7752 30.7954 21.6153 30.6244 21.6153 30.3084V29.1663H21.1558V30.4454C21.1558 30.9174 21.4147 31.2185 21.8714 31.2185C22.1791 31.2185 22.3662 31.0585 22.499 30.8645V31.1765H22.9626V29.1677H22.499V30.3016L22.4977 30.3003Z" fill="#056399"/>
<path id="Vector_33" d="M23.9978 29.6193V29.1663H23.5342V31.1751H23.9978V30.4101C23.9978 29.877 24.2756 29.6152 24.6823 29.6152H24.7094V29.1283C24.3556 29.1134 24.1238 29.3155 23.9978 29.6193Z" fill="#056399"/>
<path id="Vector_34" d="M25.9093 29.1242C25.3346 29.1242 24.928 29.5921 24.928 30.1713V30.1794C24.928 30.7993 25.3807 31.2225 25.9581 31.2225C26.3268 31.2225 26.5857 31.0746 26.7796 30.8454L26.5098 30.6053C26.3458 30.7613 26.194 30.8454 25.9663 30.8454C25.6654 30.8454 25.4376 30.6664 25.3888 30.3354H26.8649C26.869 30.2893 26.8731 30.2486 26.8731 30.2066C26.8731 29.6274 26.5505 29.1255 25.9107 29.1255L25.9093 29.1242ZM25.3848 30.0302C25.4268 29.7142 25.6206 29.5012 25.9053 29.5012C26.2089 29.5012 26.3851 29.7373 26.4149 30.0302H25.3848Z" fill="#056399"/>
<path id="Vector_35" d="M29.523 28.5112H28.5308V31.1751H29.523C30.3593 31.1751 30.9381 30.5932 30.9381 29.8432V29.835C30.9381 29.085 30.3593 28.5112 29.523 28.5112ZM30.4474 29.8513C30.4474 30.3722 30.0828 30.7492 29.523 30.7492H28.9984V28.9371H29.523C30.0828 28.9371 30.4474 29.321 30.4474 29.8432V29.8513Z" fill="#93C940"/>
<path id="Vector_36" d="M32.3224 29.1242C31.7477 29.1242 31.3411 29.5921 31.3411 30.1713V30.1794C31.3411 30.7993 31.7938 31.2225 32.3712 31.2225C32.7399 31.2225 32.9988 31.0746 33.1926 30.8454L32.9229 30.6053C32.7589 30.7613 32.6071 30.8454 32.3794 30.8454C32.0784 30.8454 31.8507 30.6664 31.8006 30.3354H33.2767C33.2807 30.2893 33.2835 30.2486 33.2835 30.2066C33.2835 29.6274 32.9609 29.1255 32.3211 29.1255L32.3224 29.1242ZM31.7979 30.0302C31.8399 29.7142 32.0337 29.5012 32.3184 29.5012C32.6233 29.5012 32.7968 29.7373 32.828 30.0302H31.7979Z" fill="#93C940"/>
<path id="Vector_37" d="M34.5587 29.9882C34.3228 29.9163 34.1059 29.8472 34.1059 29.7034V29.6953C34.1059 29.5854 34.209 29.4972 34.3879 29.4972C34.5546 29.4972 34.7606 29.5691 34.9545 29.6871L35.1375 29.3602C34.9247 29.2192 34.6549 29.1324 34.4001 29.1324C34.0002 29.1324 33.6844 29.3643 33.6844 29.7495V29.7577C33.6844 30.1374 34.0192 30.2636 34.312 30.3436C34.5478 30.4155 34.7606 30.4725 34.7606 30.6257V30.6339C34.7606 30.7668 34.6468 30.8509 34.4489 30.8509C34.2401 30.8509 34.0151 30.7668 33.7915 30.604L33.5854 30.916C33.8403 31.1181 34.148 31.2171 34.438 31.2171C34.8569 31.2171 35.1836 31.0082 35.1836 30.585V30.5769C35.1836 30.2147 34.8488 30.0818 34.56 29.991L34.5587 29.9882Z" fill="#93C940"/>
<path id="Vector_38" d="M36.1571 28.4202H35.6624V28.8583H36.1571V28.4202Z" fill="#93C940"/>
<path id="Vector_39" d="M36.1406 29.1663H35.677V31.1751H36.1406V29.1663Z" fill="#93C940"/>
<path id="Vector_40" d="M38.2568 29.4673C38.101 29.2815 37.8922 29.1242 37.5533 29.1242C37.0816 29.1242 36.6411 29.4741 36.6411 30.0682V30.0764C36.6411 30.6664 37.0789 31.0163 37.5533 31.0163C37.8841 31.0163 38.0928 30.8644 38.2609 30.6515V30.8034C38.2609 31.2103 38.0359 31.4164 37.6252 31.4164C37.3514 31.4164 37.1264 31.3405 36.9109 31.2076L36.7401 31.5534C37.003 31.7135 37.3026 31.7935 37.6374 31.7935C38.002 31.7935 38.2799 31.7067 38.4629 31.5236C38.6337 31.3527 38.7177 31.1018 38.7177 30.7667V29.1689H38.2582V29.4701L38.2568 29.4673ZM38.2636 30.0723C38.2636 30.3992 37.9939 30.6243 37.674 30.6243C37.3541 30.6243 37.1033 30.3992 37.1033 30.0723V30.0655C37.1033 29.7345 37.3541 29.5175 37.674 29.5175C37.9939 29.5175 38.2636 29.7427 38.2636 30.0655V30.0723Z" fill="#93C940"/>
<path id="Vector_41" d="M40.3819 29.1243C40.0661 29.1243 39.8872 29.2884 39.7544 29.4742V29.1663H39.2908V31.1751H39.7544V30.0412C39.7544 29.7252 39.9373 29.542 40.2071 29.542C40.4768 29.542 40.6368 29.717 40.6368 30.0331V31.1751H41.0963V29.892C41.0963 29.424 40.8374 29.1229 40.3806 29.1229L40.3819 29.1243Z" fill="#93C940"/>
<path id="Vector_42" d="M43.8784 29.6302C43.3647 29.5081 43.244 29.4172 43.244 29.211V29.2029C43.244 29.0239 43.404 28.8869 43.6778 28.8869C43.9218 28.8869 44.1563 28.9818 44.4003 29.1609L44.651 28.8068C44.3772 28.5898 44.0763 28.4718 43.6846 28.4718C43.1559 28.4718 42.775 28.7879 42.775 29.245V29.2531C42.775 29.74 43.0949 29.915 43.6615 30.0479C44.1563 30.1578 44.262 30.269 44.262 30.4548V30.463C44.262 30.661 44.079 30.798 43.7903 30.798C43.4596 30.798 43.2088 30.6759 42.9499 30.4521L42.668 30.7872C42.9879 31.0761 43.3674 31.213 43.7781 31.213C44.3379 31.213 44.7283 30.9201 44.7283 30.4182V30.4114C44.7283 29.9665 44.4355 29.7753 43.8757 29.6315L43.8784 29.6302Z" fill="#056399"/>
<path id="Vector_43" d="M46.1899 29.1242C45.5745 29.1242 45.1177 29.6003 45.1177 30.174V30.1821C45.1177 30.7532 45.5704 31.2211 46.1831 31.2211C46.7958 31.2211 47.2593 30.7423 47.2593 30.174V30.1672C47.2593 29.5921 46.8107 29.1242 46.1899 29.1242ZM46.7985 30.1821C46.7985 30.528 46.5667 30.8183 46.1899 30.8183C45.8361 30.8183 45.5772 30.5253 45.5772 30.1754V30.1686C45.5772 29.8186 45.813 29.5284 46.1817 29.5284C46.5504 29.5284 46.7971 29.8214 46.7971 30.1754V30.1835L46.7985 30.1821Z" fill="#056399"/>
<path id="Vector_44" d="M48.2141 28.3972H47.7505V31.175H48.2141V28.3972Z" fill="#056399"/>
<path id="Vector_45" d="M50.1349 30.3003C50.1349 30.6163 49.9519 30.7954 49.6822 30.7954C49.4124 30.7954 49.2525 30.6244 49.2525 30.3084V29.1663H48.793V30.4454C48.793 30.9174 49.0519 31.2185 49.5087 31.2185C49.8163 31.2185 50.0034 31.0585 50.1362 30.8645V31.1765H50.5998V29.1677H50.1362V30.3016L50.1349 30.3003Z" fill="#056399"/>
<path id="Vector_46" d="M51.7283 28.6142H51.2687V29.1663H51.0139V29.5623H51.2687V30.6203C51.2687 31.0611 51.5087 31.2104 51.8475 31.2104C52.0265 31.2104 52.1444 31.1724 52.2623 31.1073V30.7302C52.1715 30.7763 52.0753 30.798 51.9763 30.798C51.8204 30.798 51.7296 30.7261 51.7296 30.5471V29.561H52.2691V29.1649H51.7296V28.6129L51.7283 28.6142Z" fill="#056399"/>
<path id="Vector_47" d="M53.2386 28.4202H52.7439V28.8583H53.2386V28.4202Z" fill="#056399"/>
<path id="Vector_48" d="M53.2243 29.1663H52.7607V31.1751H53.2243V29.1663Z" fill="#056399"/>
<path id="Vector_49" d="M54.787 29.1242C54.1703 29.1242 53.7148 29.6003 53.7148 30.174V30.1821C53.7148 30.7532 54.1676 31.2211 54.7802 31.2211C55.3929 31.2211 55.8565 30.7423 55.8565 30.174V30.1672C55.8565 29.5921 55.4078 29.1242 54.7884 29.1242H54.787ZM55.3956 30.1821C55.3956 30.528 55.1638 30.8183 54.787 30.8183C54.4332 30.8183 54.1743 30.5253 54.1743 30.1754V30.1686C54.1743 29.8186 54.4102 29.5284 54.7789 29.5284C55.1476 29.5284 55.3956 29.8214 55.3956 30.1754V30.1835V30.1821Z" fill="#056399"/>
<path id="Vector_50" d="M57.411 29.1243C57.0952 29.1243 56.9162 29.2884 56.7834 29.4742V29.1663H56.3198V31.1751H56.7834V30.0412C56.7834 29.7252 56.9664 29.542 57.2361 29.542C57.5059 29.542 57.6658 29.717 57.6658 30.0331V31.1751H58.1253V29.892C58.1253 29.424 57.8664 29.1229 57.411 29.1229V29.1243Z" fill="#056399"/>
<path id="Vector_51" d="M59.4914 29.9882C59.2556 29.9163 59.0387 29.8472 59.0387 29.7034V29.6953C59.0387 29.5854 59.1417 29.4972 59.3206 29.4972C59.4873 29.4972 59.6934 29.5691 59.8872 29.6871L60.0702 29.3602C59.8574 29.2192 59.5876 29.1324 59.3328 29.1324C58.933 29.1324 58.6185 29.3643 58.6185 29.7495V29.7577C58.6185 30.1374 58.9533 30.2636 59.2461 30.3436C59.4819 30.4155 59.6947 30.4725 59.6947 30.6257V30.6339C59.6947 30.7668 59.5809 30.8509 59.383 30.8509C59.1742 30.8509 58.9492 30.7668 58.7256 30.604L58.5195 30.916C58.7744 31.1181 59.0821 31.2171 59.3721 31.2171C59.791 31.2171 60.1176 31.0082 60.1176 30.585V30.5769C60.1176 30.2147 59.7828 30.0818 59.4941 29.991L59.4914 29.9882Z" fill="#056399"/>
<path id="Vector_52" d="M5.27662 14.8023C5.27662 12.3459 7.26645 10.3534 9.72257 10.3534H14.46L19.6189 5.19099H8.93369C4.06483 5.19099 0.117676 9.14076 0.117676 14.0129V16.3621H5.27662V14.8023Z" fill="#056399"/>
<path id="Vector_53" d="M19.6189 17.4866V15.1373H14.46V16.6971C14.46 19.1535 12.4701 21.1461 10.014 21.1461H5.27662L0.117676 26.3084H10.8029C15.6718 26.3084 19.6189 22.3587 19.6189 17.4866Z" fill="#056399"/>
<path id="Vector_54" d="M51.8247 14.8023C51.8247 12.3459 53.8145 10.3534 56.2707 10.3534H61.0081L66.167 5.19099H55.4818C50.6129 5.19099 46.6658 9.14076 46.6658 14.0129V16.3621H51.8247V14.8023Z" fill="#056399"/>
<path id="Vector_55" d="M61.0081 16.6984C61.0081 19.1548 59.0182 21.1473 56.5621 21.1473H51.8247L46.6658 26.3097H57.351C62.2198 26.3097 66.167 22.3599 66.167 17.4878V15.1386H61.0081V16.6984Z" fill="#056399"/>
<path id="Vector_56" d="M32.9623 10.3533C35.9403 10.3533 38.3558 12.769 38.3558 15.7503C38.3558 18.7303 35.9416 21.1473 32.9623 21.1473H22.5902V26.3097H33.1412C38.9684 26.3097 43.6923 21.5827 43.6923 15.7517C43.6923 9.9206 38.9684 5.19363 33.1412 5.19363H27.7505L22.5889 10.356H32.961L32.9623 10.3533Z" fill="#93C940"/>
<path id="Vector_57" d="M9.31305 14.0034C9.22359 14.1173 9.07584 14.3859 9.00671 14.5202C8.89963 14.7291 8.94165 14.8986 9.13684 15.0248C9.23714 15.0899 9.34694 15.1414 9.4486 15.2038L10.2022 15.0058C10.2483 15.0017 10.2944 15.0003 10.3378 15.018L11.3476 15.6066L12.0335 15.292C12.0498 15.2784 12.0497 15.2486 12.0362 15.2336L9.7712 13.9085C9.61396 13.8244 9.4242 13.8651 9.31305 14.0048V14.0034ZM9.98807 14.5663L9.57737 14.3276C9.53941 14.2937 9.55839 14.2299 9.60583 14.2191C9.63294 14.2136 9.65056 14.2272 9.6736 14.2394C9.79966 14.3018 9.92301 14.3954 10.0491 14.4605C10.106 14.508 10.0572 14.5894 9.98943 14.5663H9.98807Z" fill="#056399"/>
<path id="Vector_58" d="M11.157 15.6174C10.8994 15.4627 10.6093 15.2715 10.3437 15.1386C10.2908 15.1114 10.2718 15.1047 10.2095 15.1128C10.0184 15.1399 9.80148 15.2417 9.60765 15.2729L9.58325 15.2864L10.932 16.0745C10.9577 16.0799 10.9835 16.0677 11.0011 16.0487C11.077 15.9171 11.1597 15.7869 11.2288 15.6526C11.203 15.6445 11.1786 15.6296 11.1556 15.616L11.157 15.6174Z" fill="#056399"/>
<path id="Vector_59" d="M11.3055 15.7422L11.1848 15.9565C11.2146 15.9606 11.2363 15.985 11.2621 15.9958C11.5793 16.1315 11.8775 15.8521 11.7812 15.5265L11.3055 15.7422Z" fill="#056399"/>
<path id="Vector_60" d="M8.73044 15.9226C8.71553 15.8371 8.64097 15.848 8.5732 15.8507V15.4614C8.5732 15.4614 8.54338 15.4194 8.53525 15.4167C8.49188 15.3977 8.43766 15.418 8.42546 15.4655L8.42139 17.3278C8.43088 17.3875 8.49594 17.4227 8.54474 17.3834C8.55152 17.378 8.57184 17.3481 8.57184 17.3427V16.9616C8.66537 16.9643 8.72231 16.967 8.73044 16.8599C8.75348 16.5574 8.71417 16.2278 8.73044 15.9239V15.9226Z" fill="#056399"/>
<path id="Vector_61" d="M9.40708 16.2658H8.83643V16.5452H9.51145C9.53449 16.5452 9.58601 16.5113 9.60227 16.4923L9.91539 15.9457L9.67547 15.8047C9.59143 15.9606 9.50332 16.1166 9.40708 16.2658Z" fill="#056399"/>
<path id="Vector_62" d="M9.70584 15.6948C9.74921 15.7246 10.0068 15.8792 10.0434 15.886C10.1179 15.8996 10.2155 15.867 10.2413 15.7938L9.64891 15.4493C9.59605 15.5415 9.62044 15.6337 9.70584 15.6934V15.6948Z" fill="#056399"/>
<path id="Vector_63" d="M6.95923 15.6323C6.95923 17.3278 8.33775 18.7072 10.0321 18.7072C11.7264 18.7072 13.105 17.3278 13.105 15.6323C13.105 13.9369 11.7264 12.5574 10.0321 12.5574C8.33775 12.5574 6.95923 13.9369 6.95923 15.6323ZM12.9925 15.6323C12.9925 17.2654 11.6641 18.5947 10.0321 18.5947C8.4001 18.5947 7.07174 17.2654 7.07174 15.6323C7.07174 13.9992 8.4001 12.67 10.0321 12.67C11.6641 12.67 12.9925 13.9992 12.9925 15.6323Z" fill="#056399"/>
<path id="Vector_64" d="M53.3442 15.6323C53.3442 17.3278 54.7228 18.7072 56.4171 18.7072C58.1115 18.7072 59.49 17.3278 59.49 15.6323C59.49 13.9369 58.1115 12.5574 56.4171 12.5574C54.7228 12.5574 53.3442 13.9369 53.3442 15.6323ZM59.3775 15.6323C59.3775 17.2654 58.0491 18.5947 56.4171 18.5947C54.7851 18.5947 53.4567 17.2654 53.4567 15.6323C53.4567 13.9992 54.7851 12.67 56.4171 12.67C58.0491 12.67 59.3775 13.9992 59.3775 15.6323Z" fill="#056399"/>
<path id="Vector_65" d="M34.094 15.6323C34.094 13.9369 32.7154 12.5574 31.0211 12.5574C29.3268 12.5574 27.9482 13.9369 27.9482 15.6323C27.9482 17.3278 29.3268 18.7072 31.0211 18.7072C32.7154 18.7072 34.094 17.3278 34.094 15.6323ZM28.0607 15.6323C28.0607 13.9992 29.3891 12.67 31.0211 12.67C32.6531 12.67 33.9815 13.9992 33.9815 15.6323C33.9815 17.2654 32.6531 18.5947 31.0211 18.5947C29.3891 18.5947 28.0607 17.2654 28.0607 15.6323Z" fill="#93C940"/>
<path id="Vector_66" d="M30.9631 17.34C30.9468 17.3305 30.9129 17.3454 30.8885 17.344C30.4887 17.321 30.2352 16.7174 30.1552 16.3837H30.9712C30.9875 16.3118 31.0376 16.2535 31.0783 16.1952H30.1091C30.0264 15.7517 30.0251 15.2918 30.1091 14.8483H31.7005C31.7167 14.8497 31.7452 15.1494 31.7506 15.1847C31.752 15.1969 31.7452 15.201 31.7642 15.1983C31.813 15.1915 31.8807 15.1454 31.939 15.1535L31.9038 14.8483H32.5897C32.6642 15.0043 32.6994 15.1847 32.7198 15.3556C32.7266 15.4126 32.7198 15.4858 32.7293 15.5441C32.7415 15.6255 32.8092 15.7164 32.8187 15.8317C32.8228 15.8805 32.8079 15.97 32.8187 16.0094C32.8201 16.0148 32.8377 16.0229 32.8418 16.0243C32.8621 16.0283 32.8526 16.0161 32.8567 16.0039C33.1535 14.9066 32.404 13.7646 31.3047 13.5489C29.857 13.2654 28.6154 14.5635 28.9543 15.9999C29.1766 16.9425 30.101 17.618 31.0688 17.5244C31.0431 17.5 30.9753 17.3495 30.9617 17.34H30.9631ZM31.4605 13.789C31.8767 13.9205 32.2399 14.2067 32.4649 14.5797C32.4799 14.6042 32.4961 14.634 32.5056 14.6598H31.8591C31.8048 14.4224 31.7154 14.1755 31.5852 13.9694C31.55 13.9138 31.5093 13.8676 31.47 13.8147C31.4673 13.8107 31.4511 13.7903 31.4605 13.789ZM30.9048 13.6981C31.3155 13.6927 31.5825 14.3288 31.6625 14.6598H30.1552C30.2325 14.3275 30.4995 13.7035 30.9048 13.6981ZM29.3528 14.5797C29.5778 14.2067 29.9411 13.9205 30.3572 13.789C30.3707 13.7958 30.3572 13.8052 30.3531 13.812C30.3192 13.8554 30.2813 13.8961 30.2501 13.9422C30.1105 14.1538 30.0143 14.4129 29.9573 14.6598H29.3108C29.3108 14.6598 29.346 14.5892 29.3514 14.5797H29.3528ZM29.2267 14.8483H29.9126L29.8584 15.3013C29.8516 15.6011 29.8611 15.8995 29.9126 16.1952H29.2267C29.0451 15.7761 29.0451 15.2674 29.2267 14.8483ZM30.3572 17.2545C29.9424 17.1229 29.5778 16.8367 29.3528 16.4637C29.3379 16.4393 29.3216 16.4095 29.3121 16.3837H29.9587C30.0156 16.6306 30.1118 16.8896 30.2515 17.1012C30.2826 17.1474 30.3206 17.1881 30.3545 17.2315C30.3599 17.2382 30.3721 17.2464 30.3585 17.2545H30.3572Z" fill="#93C940"/>
<path id="Vector_67" d="M32.5336 16.2033C32.5227 16.008 32.5702 15.8195 32.459 15.6445C32.276 15.3542 31.8382 15.3542 31.6552 15.6445C31.5454 15.8195 31.5915 16.008 31.5807 16.2033C31.3706 16.2413 31.212 16.4271 31.1957 16.6387C31.1659 17.0199 31.1645 17.4729 31.6403 17.5326C32.0388 17.4838 32.783 17.7143 32.9063 17.1637C32.9361 17.0307 32.9334 16.6184 32.886 16.4936C32.8304 16.3471 32.6908 16.2291 32.5349 16.202L32.5336 16.2033ZM31.7691 15.8588C31.7691 15.7408 31.9222 15.6269 32.0334 15.6201C32.1622 15.6133 32.3438 15.7164 32.3438 15.8588V16.1952H31.7691V15.8588ZM32.7098 17.1501C32.6677 17.2681 32.5607 17.3359 32.4387 17.3454C32.2367 17.3617 31.8667 17.363 31.6674 17.3454C31.5441 17.3346 31.437 17.2572 31.4004 17.1379C31.3746 17.0511 31.376 16.7581 31.3868 16.6604C31.4004 16.5248 31.4953 16.4068 31.6349 16.3878C31.8884 16.3539 32.2069 16.4082 32.4671 16.3851C32.619 16.4041 32.7179 16.5167 32.7315 16.6686C32.7409 16.7703 32.7423 17.0633 32.7111 17.1514L32.7098 17.1501Z" fill="#93C940"/>
</g>
<g id="Group_2">
<g id="Group_3">
<path id="Vector_68" d="M57.2416 14.6653C57.3148 15.1238 56.999 15.5605 56.5395 15.6284C56.0149 15.7057 55.5418 15.2703 55.5811 14.7399C55.5825 14.7209 55.5933 14.6355 55.6055 14.6355C56.0379 14.9447 56.6113 14.9719 57.0884 14.7467C57.1399 14.7223 57.1874 14.6857 57.2403 14.6653H57.2416Z" fill="#056399"/>
<path id="Vector_69" d="M57.5761 13.8122C57.6114 13.8461 57.6195 13.9139 57.6046 13.9587C57.5883 14.0116 57.4135 14.1405 57.3755 14.1974C57.3904 14.4022 57.2454 14.4823 57.0882 14.5664C56.6449 14.8078 56.1176 14.7956 55.6947 14.5148C55.612 14.4606 55.5334 14.4117 55.5158 14.3059C55.5104 14.272 55.5172 14.2218 55.5063 14.1961C55.4873 14.1554 55.3409 14.0442 55.303 13.9913C55.265 13.9384 55.2569 13.8543 55.3071 13.8068C55.3464 13.7702 55.5632 13.7349 55.6324 13.7146C55.7137 13.6915 55.8018 13.6657 55.8818 13.6359C56.0526 13.5708 56.2234 13.4568 56.3887 13.3972C56.405 13.3917 56.4253 13.3836 56.4416 13.3822C56.4999 13.3809 56.6924 13.4962 56.7601 13.526C56.9418 13.6088 57.0949 13.6684 57.2888 13.7241C57.3552 13.743 57.5341 13.7702 57.5761 13.8095V13.8122ZM56.3115 13.762C56.3115 13.762 56.2505 13.819 56.2491 13.8258C56.2464 13.8366 56.2667 13.8624 56.2681 13.8841C56.2708 13.9234 56.2478 13.9587 56.2478 13.994C56.2451 14.0862 56.3291 14.1906 56.4172 14.2123C56.4877 14.2313 56.5948 14.1405 56.6192 14.0754C56.6517 13.9845 56.611 13.9519 56.6165 13.8841C56.6178 13.8624 56.6381 13.8366 56.6354 13.8258C56.6341 13.819 56.5771 13.762 56.5731 13.762C56.569 13.762 56.5378 13.7878 56.5121 13.7892C56.4863 13.7905 56.466 13.7715 56.443 13.7715C56.4226 13.7715 56.4036 13.7892 56.382 13.7892C56.3494 13.7905 56.3182 13.762 56.3128 13.762H56.3115Z" fill="#056399"/>
</g>
<path id="Vector_70" d="M58.0877 17.4704H56.6265L56.5668 16.6349H56.2686L56.209 17.4704H54.7478V16.5806C54.7478 16.3283 55.2087 16.1032 55.4066 16.0163C55.5448 15.9553 55.6939 15.9024 55.8444 15.8807C55.8769 15.8888 55.9677 16.3378 56.0057 16.3459C56.0409 16.3541 56.3581 15.9987 56.4137 15.9594C56.4394 15.9553 56.7295 16.2795 56.7851 16.3215C56.7986 16.331 56.8163 16.3514 56.8352 16.3419C56.8732 16.3215 56.9748 15.8875 57.0087 15.8821C57.0616 15.8875 57.1104 15.9011 57.1605 15.916C57.4127 15.9879 58.0877 16.2659 58.0877 16.5806V17.4704ZM56.575 16.5236C56.575 16.4789 56.6292 16.3541 56.6238 16.3215C56.6211 16.3066 56.4286 16.114 56.4137 16.1167C56.3879 16.1506 56.2158 16.2971 56.2104 16.3215C56.2036 16.3541 56.2605 16.4789 56.2592 16.5236H56.575ZM57.189 16.4273C57.1795 16.4287 57.1226 16.4884 57.1226 16.5006C57.1226 16.5155 57.1483 16.5426 57.1497 16.5725C57.1497 16.6064 57.1253 16.6552 57.1239 16.6918C57.1212 16.803 57.2175 16.9116 57.3218 16.94C57.391 16.959 57.517 16.8492 57.5428 16.7827C57.5807 16.6823 57.5306 16.643 57.5401 16.5616C57.5428 16.5372 57.5631 16.5114 57.5591 16.4938C57.5563 16.4857 57.5008 16.4287 57.494 16.4287C57.4845 16.4273 57.4479 16.4572 57.4154 16.4572C57.3801 16.4572 57.3598 16.4314 57.3435 16.4287C57.3313 16.4273 57.2961 16.4599 57.2568 16.4558C57.231 16.4545 57.1971 16.426 57.1877 16.4273H57.189Z" fill="#056399"/>
</g>
</g>
<defs>
<clipPath id="clip0_286_187">
<rect width="66.2857" height="31.8171" fill="white" transform="translate(0 0.0914268)"/>
</clipPath>
</defs>
</svg>
